<svg width="32" height="32" viewBox="0 0 32 32" fill="none" xmlns="http://www.w3.org/2000/svg">
<path d="M18.5943 24.0778V18.1661H0.821943C-0.275884 15.3829 -0.273912 12.2903 0.827463 9.50862C1.92884 6.72689 4.04815 4.46176 6.7603 3.16761C9.47245 1.87345 12.5768 1.64598 15.4507 2.53083C18.3246 3.41567 20.7555 5.34739 22.2557 7.93849C23.3768 7.72426 24.5306 7.74508 25.6431 7.99961C26.7556 8.25414 27.8024 8.73677 28.7162 9.41657C29.6301 10.0964 30.3909 10.9584 30.95 11.9473C31.5091 12.9362 31.854 14.0302 31.9627 15.1593C32.0715 16.2884 31.9416 17.4276 31.5814 18.5039C31.2213 19.5802 30.6387 20.5699 29.8712 21.4095C29.1037 22.2491 28.168 22.9202 27.1243 23.3797C26.0805 23.8392 24.9517 24.077 23.81 24.0778H18.5958H18.5943ZM6.67253 27.0389H21.5747V30H6.67253V27.0389ZM0.711667 21.1168H15.6138V24.0778H0.711667V21.1168Z" fill="white"/>
<path d="M21.5747 27.0389H6.67253V30H21.5747V27.0389Z" fill="white"/>
<path d="M21.5747 27.0389H6.67253V30H21.5747V27.0389Z" fill="#FF4928"/>
<path d="M15.6138 21.1168H0.711667V24.0778H15.6138V21.1168Z" fill="white"/>
</svg>
