<svg width="124" height="22" viewBox="0 0 124 22" fill="none" xmlns="http://www.w3.org/2000/svg">
<g style="mix-blend-mode:luminosity" clip-path="url(#clip0_1_480)">
<path d="M18.5646 16.5935H24.9753L9.09467 0.712769H2.6839L18.5646 16.5935Z" fill="#7476ED"/>
<path d="M12.3881 0.712769L27.6967 16.0214V0.712769H23.5539V5.54601L18.7207 0.712769L12.3881 0.712769Z" fill="#E56F8C"/>
<path d="M6.10352e-05 1.24438V16.5934H4.14285V11.7601L8.97606 16.5934H15.3491L6.10352e-05 1.24438Z" fill="#64C2DB"/>
<path d="M37.6937 14.2055H41.4056V16.3929H34.86V4.76001H37.6937V14.2055Z" fill="#3A3B7B"/>
<path d="M46.4692 16.5255C45.5633 16.5255 44.7458 16.3322 44.0166 15.9455C43.2985 15.5588 42.7296 15.0065 42.3098 14.2884C41.9011 13.5703 41.6967 12.7307 41.6967 11.7696C41.6967 10.8195 41.9066 9.9854 42.3264 9.26737C42.7462 8.53818 43.3207 7.98032 44.0498 7.59366C44.7789 7.207 45.5964 7.01367 46.5023 7.01367C47.4082 7.01367 48.2257 7.207 48.9549 7.59366C49.684 7.98032 50.2584 8.53818 50.6782 9.26737C51.0981 9.9854 51.3079 10.8195 51.3079 11.7696C51.3079 12.7196 51.0926 13.5592 50.6616 14.2884C50.2419 15.0065 49.6618 15.5588 48.9217 15.9455C48.1926 16.3322 47.375 16.5255 46.4692 16.5255ZM46.4692 14.073C47.0105 14.073 47.469 13.8741 47.8446 13.4764C48.2312 13.0787 48.4245 12.5098 48.4245 11.7696C48.4245 11.0294 48.2368 10.4605 47.8612 10.0628C47.4966 9.66507 47.0436 9.46622 46.5023 9.46622C45.9499 9.46622 45.4915 9.66507 45.1269 10.0628C44.7624 10.4494 44.5801 11.0184 44.5801 11.7696C44.5801 12.5098 44.7568 13.0787 45.1103 13.4764C45.4749 13.8741 45.9279 14.073 46.4692 14.073Z" fill="#3A3B7B"/>
<path d="M55.8274 7.01367C56.4792 7.01367 57.0482 7.14624 57.5343 7.41138C58.0314 7.67652 58.4125 8.02453 58.6777 8.45535V7.14624H61.5113V16.3764C61.5113 17.227 61.3401 17.9948 60.9976 18.6797C60.6662 19.3757 60.1525 19.9281 59.4565 20.3369C58.7716 20.7456 57.9154 20.95 56.888 20.95C55.5181 20.95 54.4079 20.6241 53.5572 19.9723C52.7065 19.3315 52.2205 18.4588 52.0989 17.3541H54.8995C54.9878 17.7076 55.1977 17.9837 55.5291 18.1826C55.8606 18.3925 56.2693 18.4975 56.7555 18.4975C57.341 18.4975 57.8049 18.3263 58.1474 17.9837C58.5009 17.6523 58.6777 17.1166 58.6777 16.3764V15.0672C58.4014 15.4981 58.0203 15.8516 57.5343 16.1278C57.0482 16.3929 56.4792 16.5255 55.8274 16.5255C55.0652 16.5255 54.3747 16.3322 53.7561 15.9455C53.1374 15.5478 52.6458 14.9899 52.2812 14.2718C51.9277 13.5427 51.7509 12.7031 51.7509 11.753C51.7509 10.8029 51.9277 9.96889 52.2812 9.25077C52.6458 8.53273 53.1374 7.98032 53.7561 7.59366C54.3747 7.207 55.0652 7.01367 55.8274 7.01367ZM58.6777 11.7696C58.6777 11.0626 58.4788 10.5047 58.0811 10.0959C57.6945 9.68712 57.2194 9.48274 56.656 9.48274C56.0926 9.48274 55.612 9.68712 55.2143 10.0959C54.8276 10.4936 54.6343 11.046 54.6343 11.753C54.6343 12.4601 54.8276 13.0235 55.2143 13.4433C55.612 13.8521 56.0926 14.0564 56.656 14.0564C57.2194 14.0564 57.6945 13.8521 58.0811 13.4433C58.4788 13.0345 58.6777 12.4766 58.6777 11.7696Z" fill="#3A3B7B"/>
<path d="M67.2733 16.5255C66.3674 16.5255 65.55 16.3322 64.8208 15.9455C64.1027 15.5588 63.5338 15.0065 63.114 14.2884C62.7052 13.5703 62.5009 12.7307 62.5009 11.7696C62.5009 10.8195 62.7108 9.9854 63.1305 9.26737C63.5504 8.53818 64.1248 7.98032 64.854 7.59366C65.5831 7.207 66.4006 7.01367 67.3065 7.01367C68.2124 7.01367 69.0299 7.207 69.759 7.59366C70.4881 7.98032 71.0626 8.53818 71.4824 9.26737C71.9022 9.9854 72.1121 10.8195 72.1121 11.7696C72.1121 12.7196 71.8967 13.5592 71.4659 14.2884C71.046 15.0065 70.4661 15.5588 69.7259 15.9455C68.9967 16.3322 68.1792 16.5255 67.2733 16.5255ZM67.2733 14.073C67.8147 14.073 68.2731 13.8741 68.6487 13.4764C69.0354 13.0787 69.2288 12.5098 69.2288 11.7696C69.2288 11.0294 69.041 10.4605 68.6653 10.0628C68.3007 9.66507 67.8479 9.46622 67.3065 9.46622C66.7542 9.46622 66.2957 9.66507 65.9311 10.0628C65.5665 10.4494 65.3842 11.0184 65.3842 11.7696C65.3842 12.5098 65.561 13.0787 65.9145 13.4764C66.2791 13.8741 66.732 14.073 67.2733 14.073Z" fill="#3A3B7B"/>
<path d="M74.5432 6.18511C74.0461 6.18511 73.6373 6.04149 73.3169 5.75426C73.0076 5.45598 72.853 5.09142 72.853 4.66056C72.853 4.21867 73.0076 3.8541 73.3169 3.56687C73.6373 3.26859 74.0461 3.11945 74.5432 3.11945C75.0293 3.11945 75.427 3.26859 75.7363 3.56687C76.0567 3.8541 76.2169 4.21867 76.2169 4.66056C76.2169 5.09142 76.0567 5.45598 75.7363 5.75426C75.427 6.04149 75.0293 6.18511 74.5432 6.18511ZM75.9517 7.14623V16.3929H73.1181V7.14623H75.9517Z" fill="#3A3B7B"/>
<path d="M80.3416 8.45535C80.6183 8.02453 80.9991 7.67652 81.485 7.41138C81.9709 7.14624 82.5402 7.01367 83.1921 7.01367C83.9547 7.01367 84.645 7.207 85.2632 7.59366C85.8823 7.98032 86.3682 8.53273 86.7218 9.25077C87.0866 9.96889 87.2686 10.8029 87.2686 11.753C87.2686 12.7031 87.0866 13.5427 86.7218 14.2718C86.3682 14.9899 85.8823 15.5478 85.2632 15.9455C84.645 16.3322 83.9547 16.5255 83.1921 16.5255C82.5515 16.5255 81.9822 16.3929 81.485 16.1278C80.9991 15.8627 80.6183 15.5202 80.3416 15.1004V20.8009H77.5081V7.14624H80.3416V8.45535ZM84.3852 11.753C84.3852 11.046 84.1864 10.4936 83.7887 10.0959C83.4022 9.68712 82.9211 9.48274 82.347 9.48274C81.7833 9.48274 81.303 9.68712 80.9053 10.0959C80.5188 10.5047 80.3256 11.0626 80.3256 11.7696C80.3256 12.4766 80.5188 13.0345 80.9053 13.4433C81.303 13.8521 81.7833 14.0564 82.347 14.0564C82.9107 14.0564 83.391 13.8521 83.7887 13.4433C84.1864 13.0235 84.3852 12.4601 84.3852 11.753Z" fill="#3A3B7B"/>
<path d="M92.0197 16.5255C91.213 16.5255 90.4954 16.3874 89.866 16.1112C89.2357 15.8351 88.7386 15.4594 88.3746 14.9844C88.0097 14.4983 87.8053 13.9569 87.7612 13.3604H90.562C90.5948 13.6808 90.744 13.9404 91.0094 14.1393C91.274 14.3381 91.6003 14.4376 91.9868 14.4376C92.3404 14.4376 92.6106 14.3712 92.7991 14.2387C92.9979 14.0951 93.0973 13.9128 93.0973 13.6919C93.0973 13.4267 92.9586 13.2334 92.6828 13.1118C92.4062 12.9793 91.9587 12.8357 91.3405 12.681C90.6774 12.5263 90.125 12.3661 89.6832 12.2005C89.2413 12.0237 88.8605 11.753 88.5397 11.3884C88.2198 11.0129 88.0595 10.5102 88.0595 9.88044C88.0595 9.35019 88.203 8.86966 88.49 8.43875C88.7883 7.99689 89.2197 7.6489 89.7826 7.3948C90.3575 7.14071 91.0366 7.01367 91.8208 7.01367C92.9811 7.01367 93.8928 7.3009 94.5551 7.87537C95.2294 8.44982 95.6159 9.21212 95.7153 10.1622H93.0973C93.0524 9.8418 92.9089 9.5877 92.666 9.39991C92.4342 9.21212 92.1247 9.11823 91.7382 9.11823C91.4071 9.11823 91.1529 9.18446 90.9757 9.31708C90.7993 9.43856 90.7111 9.60983 90.7111 9.83073C90.7111 10.0959 90.849 10.2947 91.1248 10.4273C91.4119 10.5599 91.8545 10.6925 92.4511 10.825C93.1358 11.0018 93.6939 11.1785 94.1245 11.3553C94.5551 11.521 94.9311 11.7972 95.2511 12.1839C95.583 12.5595 95.7538 13.0676 95.765 13.7084C95.765 14.2498 95.6103 14.7358 95.3008 15.1667C95.0025 15.5865 94.5663 15.9179 93.9922 16.1609C93.4285 16.404 92.771 16.5255 92.0197 16.5255Z" fill="#3A3B7B"/>
<path d="M106.132 7.14624V16.3929H103.298V15.1336C103.011 15.5423 102.619 15.8737 102.122 16.1278C101.636 16.3709 101.095 16.4923 100.498 16.4923C99.791 16.4923 99.1663 16.3377 98.6251 16.0284C98.0839 15.708 97.6645 15.2495 97.3662 14.6529C97.068 14.0564 96.9188 13.3549 96.9188 12.5485V7.14624H99.7356V12.1673C99.7356 12.786 99.896 13.2665 100.216 13.609C100.537 13.9515 100.967 14.1227 101.508 14.1227C102.061 14.1227 102.497 13.9515 102.818 13.609C103.139 13.2665 103.298 12.786 103.298 12.1673V7.14624H106.132Z" fill="#3A3B7B"/>
<path d="M119.468 7.04681C120.617 7.04681 121.529 7.39481 122.203 8.09076C122.888 8.78675 123.231 9.75344 123.231 10.9907V16.3929H120.413V11.3718C120.413 10.7753 120.253 10.3169 119.933 9.99647C119.623 9.66508 119.193 9.49934 118.64 9.49934C118.088 9.49934 117.651 9.66508 117.331 9.99647C117.022 10.3169 116.867 10.7753 116.867 11.3718V16.3929H114.05V11.3718C114.05 10.7753 113.89 10.3169 113.569 9.99647C113.26 9.66508 112.829 9.49934 112.277 9.49934C111.724 9.49934 111.288 9.66508 110.967 9.99647C110.659 10.3169 110.504 10.7753 110.504 11.3718V16.3929H107.67V7.14624H110.504V8.30622C110.791 7.91957 111.166 7.61576 111.631 7.39481C112.095 7.16281 112.619 7.04681 113.205 7.04681C113.9 7.04681 114.52 7.19595 115.061 7.49424C115.613 7.79252 116.044 8.21785 116.353 8.77023C116.674 8.26203 117.11 7.84775 117.663 7.52738C118.215 7.207 118.817 7.04681 119.468 7.04681Z" fill="#3A3B7B"/>
</g>
<defs>
<clipPath id="clip0_1_480">
<rect width="123.482" height="21.6494" fill="white"/>
</clipPath>
</defs>
</svg>
