<svg width="129" height="26" viewBox="0 0 129 26" fill="none" xmlns="http://www.w3.org/2000/svg">
<g style="mix-blend-mode:luminosity" clip-path="url(#clip0_1_466)">
<path d="M38.546 19.4348V6.37463H41.0087V17.1959H46.979V19.4348H38.546Z" fill="#3A5088"/>
<path d="M52.2965 19.6961C51.376 19.6961 50.5489 19.5095 49.815 19.1363C49.0811 18.7632 48.5028 18.2222 48.0799 17.5132C47.657 16.8042 47.4456 15.9522 47.4456 14.9571V14.6586C47.4456 13.6635 47.657 12.8115 48.0799 12.1025C48.5028 11.3935 49.0811 10.8525 49.815 10.4793C50.5489 10.1062 51.376 9.91962 52.2965 9.91962C53.2169 9.91962 54.0441 10.1062 54.7779 10.4793C55.5117 10.8525 56.0901 11.3935 56.513 12.1025C56.9359 12.8115 57.1474 13.6635 57.1474 14.6586V14.9571C57.1474 15.9522 56.9359 16.8042 56.513 17.5132C56.0901 18.2222 55.5117 18.7632 54.7779 19.1363C54.0441 19.5095 53.2169 19.6961 52.2965 19.6961ZM52.2965 17.6064C53.0179 17.6064 53.6149 17.3763 54.0876 16.9161C54.5602 16.4435 54.7966 15.7718 54.7966 14.9011V14.7146C54.7966 13.8438 54.5602 13.1784 54.0876 12.7182C53.6273 12.2456 53.0303 12.0092 52.2965 12.0092C51.5751 12.0092 50.978 12.2456 50.5053 12.7182C50.0327 13.1784 49.7964 13.8438 49.7964 14.7146V14.9011C49.7964 15.7718 50.0327 16.4435 50.5053 16.9161C50.978 17.3763 51.5751 17.6064 52.2965 17.6064Z" fill="#3A5088"/>
<path d="M58.0299 14.8452V14.5467C58.0299 13.5764 58.2226 12.7493 58.6082 12.0652C58.9938 11.3687 59.5038 10.84 60.1381 10.4793C60.785 10.1062 61.4877 9.91962 62.2465 9.91962C63.0922 9.91962 63.7328 10.0688 64.1681 10.3674C64.6035 10.6659 64.9206 10.9768 65.1196 11.3002H65.4555V10.1808H67.7691V21.0767C67.7691 21.7111 67.5825 22.2148 67.2093 22.588C66.8361 22.9736 66.3387 23.1663 65.7167 23.1663H59.5225V21.114H64.8958C65.2441 21.114 65.4182 20.9274 65.4182 20.5543V18.1475H65.0824C64.958 18.3465 64.7838 18.5517 64.56 18.7632C64.3361 18.9622 64.0376 19.1301 63.6644 19.2669C63.2912 19.4037 62.8186 19.4722 62.2465 19.4722C61.4877 19.4722 60.785 19.2918 60.1381 18.9311C59.5038 18.558 58.9938 18.0293 58.6082 17.3452C58.2226 16.6487 58.0299 15.8153 58.0299 14.8452ZM62.9181 17.4198C63.6396 17.4198 64.2428 17.1897 64.7279 16.7296C65.213 16.2693 65.4555 15.6225 65.4555 14.7892V14.6026C65.4555 13.7568 65.213 13.11 64.7279 12.6622C64.2552 12.202 63.652 11.9719 62.9181 11.9719C62.1967 11.9719 61.5934 12.202 61.1083 12.6622C60.6232 13.11 60.3807 13.7568 60.3807 14.6026V14.7892C60.3807 15.6225 60.6232 16.2693 61.1083 16.7296C61.5934 17.1897 62.1967 17.4198 62.9181 17.4198Z" fill="#3A5088"/>
<path d="M73.9389 19.6961C73.0185 19.6961 72.1913 19.5095 71.4574 19.1363C70.7235 18.7632 70.1452 18.2222 69.7223 17.5132C69.2994 16.8042 69.0879 15.9522 69.0879 14.9571V14.6586C69.0879 13.6635 69.2994 12.8115 69.7223 12.1025C70.1452 11.3935 70.7235 10.8525 71.4574 10.4793C72.1913 10.1062 73.0185 9.91962 73.9389 9.91962C74.8593 9.91962 75.6864 10.1062 76.4203 10.4793C77.1541 10.8525 77.7325 11.3935 78.1555 12.1025C78.5783 12.8115 78.7898 13.6635 78.7898 14.6586V14.9571C78.7898 15.9522 78.5783 16.8042 78.1555 17.5132C77.7325 18.2222 77.1541 18.7632 76.4203 19.1363C75.6864 19.5095 74.8593 19.6961 73.9389 19.6961ZM73.9389 17.6064C74.6603 17.6064 75.2573 17.3763 75.7299 16.9161C76.2026 16.4435 76.4389 15.7718 76.4389 14.9011V14.7146C76.4389 13.8438 76.2026 13.1784 75.7299 12.7182C75.2698 12.2456 74.6727 12.0092 73.9389 12.0092C73.2174 12.0092 72.6204 12.2456 72.1478 12.7182C71.6751 13.1784 71.4388 13.8438 71.4388 14.7146V14.9011C71.4388 15.7718 71.6751 16.4435 72.1478 16.9161C72.6204 17.3763 73.2174 17.6064 73.9389 17.6064Z" fill="#3A5088"/>
<path d="M80.12 19.4348V10.1808H82.471V19.4348H80.12ZM81.2956 9.09868C80.8722 9.09868 80.5122 8.96181 80.2131 8.68815C79.9272 8.41456 79.7842 8.05382 79.7842 7.60605C79.7842 7.15828 79.9272 6.79757 80.2131 6.52393C80.5122 6.25029 80.8722 6.11346 81.2956 6.11346C81.7309 6.11346 82.0918 6.25029 82.3772 6.52393C82.6635 6.79757 82.807 7.15828 82.807 7.60605C82.807 8.05382 82.6635 8.41456 82.3772 8.68815C82.0918 8.96181 81.7309 9.09868 81.2956 9.09868Z" fill="#3A5088"/>
<path d="M84.2369 23.1663V10.1808H86.5502V11.3002H86.8862C87.0971 10.9395 87.4266 10.6223 87.8748 10.3487C88.3223 10.0627 88.9629 9.91962 89.7968 9.91962C90.5425 9.91962 91.2329 10.1062 91.8671 10.4793C92.5022 10.84 93.0122 11.3749 93.397 12.0838C93.7827 12.7928 93.976 13.6511 93.976 14.6586V14.9571C93.976 15.9646 93.7827 16.8228 93.397 17.5318C93.0122 18.2408 92.5022 18.7818 91.8671 19.155C91.2329 19.5157 90.5425 19.6961 89.7968 19.6961C89.2371 19.6961 88.7641 19.6277 88.3784 19.4908C88.0055 19.3664 87.7008 19.2047 87.4643 19.0057C87.2406 18.7943 87.0602 18.5828 86.9231 18.3714H86.5871V23.1663H84.2369ZM89.0872 17.6437C89.8217 17.6437 90.4247 17.4137 90.8969 16.9534C91.382 16.4807 91.625 15.7967 91.625 14.9011V14.7146C91.625 13.819 91.382 13.1411 90.8969 12.6809C90.4118 12.2082 89.8089 11.9719 89.0872 11.9719C88.3664 11.9719 87.7626 12.2082 87.2775 12.6809C86.7924 13.1411 86.5502 13.819 86.5502 14.7146V14.9011C86.5502 15.7967 86.7924 16.4807 87.2775 16.9534C87.7626 17.4137 88.3664 17.6437 89.0872 17.6437Z" fill="#3A5088"/>
<path d="M99.1379 19.6961C97.9311 19.6961 96.9425 19.4348 96.1711 18.9125C95.4005 18.3901 94.9339 17.6437 94.7719 16.6736L96.936 16.1138C97.0234 16.5492 97.1662 16.8912 97.3658 17.14C97.5767 17.3887 97.8317 17.5691 98.1308 17.6811C98.4411 17.7806 98.777 17.8303 99.1379 17.8303C99.6855 17.8303 100.09 17.7371 100.35 17.5505C100.612 17.3515 100.742 17.1089 100.742 16.8228C100.742 16.5367 100.618 16.3191 100.369 16.1698C100.12 16.0081 99.7224 15.8775 99.1756 15.778L98.6528 15.6847C98.0057 15.5603 97.4155 15.3924 96.8807 15.181C96.3451 14.9571 95.9161 14.6523 95.593 14.2667C95.2698 13.8812 95.1079 13.3837 95.1079 12.7742C95.1079 11.8537 95.4438 11.151 96.1158 10.6659C96.7869 10.1683 97.6705 9.91962 98.765 9.91962C99.797 9.91962 100.656 10.1497 101.34 10.6099C102.024 11.0702 102.471 11.6734 102.683 12.4197L100.5 13.0913C100.401 12.6187 100.195 12.2828 99.8844 12.0838C99.5853 11.8848 99.2124 11.7853 98.765 11.7853C98.3168 11.7853 97.9752 11.8662 97.7387 12.0279C97.5021 12.1772 97.3843 12.3886 97.3843 12.6622C97.3843 12.9607 97.5086 13.1847 97.7571 13.3339C98.0057 13.4707 98.3417 13.5764 98.765 13.6511L99.287 13.7443C99.9838 13.8687 100.612 14.0367 101.171 14.2481C101.744 14.4471 102.191 14.7394 102.515 15.125C102.85 15.4982 103.019 16.0081 103.019 16.6549C103.019 17.6251 102.664 18.3776 101.955 18.9125C101.259 19.4348 100.32 19.6961 99.1379 19.6961Z" fill="#3A5088"/>
<path d="M107.766 19.5841C107.044 19.5841 106.41 19.4224 105.862 19.099C105.327 18.7632 104.911 18.3029 104.612 17.7183C104.314 17.1337 104.165 16.4621 104.165 15.7033V10.1807H106.516V15.5167C106.516 16.2133 106.683 16.7357 107.019 17.084C107.367 17.4322 107.859 17.6064 108.493 17.6064C109.215 17.6064 109.774 17.3701 110.172 16.8974C110.571 16.4123 110.769 15.7406 110.769 14.8824V10.1807H113.12V19.4348H110.806V18.2221H110.471C110.322 18.5331 110.041 18.8378 109.632 19.1363C109.221 19.4348 108.599 19.5841 107.766 19.5841Z" fill="#3A5088"/>
<path d="M114.896 19.4348V10.1807H117.21V11.1882H117.546C117.708 10.8773 117.975 10.6099 118.348 10.386C118.721 10.1496 119.213 10.0315 119.822 10.0315C120.481 10.0315 121.01 10.1621 121.408 10.4233C121.806 10.6721 122.11 11.0016 122.322 11.4122H122.658C122.87 11.0141 123.168 10.6845 123.554 10.4233C123.939 10.1621 124.486 10.0315 125.195 10.0315C125.767 10.0315 126.284 10.1559 126.744 10.4047C127.216 10.641 127.59 11.0079 127.863 11.5054C128.15 11.9905 128.292 12.6062 128.292 13.3525V19.4348H125.941V13.5204C125.941 13.0104 125.811 12.6311 125.55 12.3823C125.289 12.1211 124.922 11.9905 124.449 11.9905C123.914 11.9905 123.498 12.1646 123.199 12.5129C122.913 12.8487 122.77 13.3338 122.77 13.9682V19.4348H120.419V13.5204C120.419 13.0104 120.289 12.6311 120.027 12.3823C119.766 12.1211 119.399 11.9905 118.926 11.9905C118.391 11.9905 117.975 12.1646 117.676 12.5129C117.39 12.8487 117.247 13.3338 117.247 13.9682V19.4348H114.896Z" fill="#3A5088"/>
<path d="M31.0954 12.4385C31.0954 9.13965 29.7849 5.97583 27.4522 3.64316C25.1195 1.31049 21.9557 4.32599e-07 18.6568 0C15.358 -4.32598e-07 12.1942 1.31049 9.8615 3.64316C7.52881 5.97583 6.21832 9.13965 6.21832 12.4385H10.1054C11.3935 12.4385 12.398 11.3591 12.8698 10.1605C13.1795 9.37362 13.6496 8.65045 14.2591 8.04082C15.4255 6.8745 17.0074 6.21926 18.6568 6.21926C20.3063 6.21926 21.8882 6.8745 23.0546 8.04082C24.2209 9.20716 24.8761 10.7891 24.8761 12.4385H31.0954Z" fill="url(#paint0_linear_1_466)"/>
<path d="M23.93 17.1985C24.5551 15.6894 24.8768 14.0719 24.8768 12.4385H31.0954C31.0954 19.3081 25.5265 24.877 18.6569 24.877C17.5811 24.877 16.5371 24.7404 15.5415 24.4837C16.1048 24.3386 16.6585 24.1537 17.1983 23.9302C18.7074 23.3051 20.0786 22.3889 21.2336 21.2339C22.3887 20.0788 23.3049 18.7076 23.93 17.1985Z" fill="#FBCF8E"/>
<path d="M-0.000183105 12.4384C-0.000183339 14.0719 0.321548 15.6894 0.946641 17.1985C1.57174 18.7076 2.48795 20.0788 3.64298 21.2338C4.798 22.3888 6.16921 23.305 7.67832 23.9302C9.18742 24.5553 10.8049 24.877 12.4384 24.877C14.0718 24.877 15.6892 24.5553 17.1983 23.9302C18.7075 23.305 20.0787 22.3888 21.2337 21.2338C22.3887 20.0788 23.3049 18.7076 23.93 17.1985C24.5551 15.6894 24.8769 14.0719 24.8769 12.4384H20.9898C19.7017 12.4384 18.6972 13.5178 18.2254 14.7163C18.212 14.7505 18.1982 14.7845 18.1842 14.8185C17.8716 15.573 17.4135 16.2587 16.836 16.8361C16.2585 17.4136 15.5729 17.8718 14.8183 18.1843C14.0638 18.4969 13.2551 18.6577 12.4384 18.6577C11.6216 18.6577 10.8129 18.4969 10.0584 18.1843C9.30376 17.8718 8.6182 17.4136 8.04064 16.8361C7.46314 16.2587 7.00504 15.573 6.69249 14.8185C6.37994 14.0639 6.21908 13.2552 6.21908 12.4384H-0.000183105Z" fill="url(#paint1_linear_1_466)"/>
<path d="M0.00100708 12.4385C0.00100708 5.5689 5.56991 0 12.4395 0C13.515 0 14.5587 0.136508 15.5542 0.393155C13.4182 0.943408 11.4478 2.05697 9.86151 3.64317C7.52885 5.97582 6.21838 9.13965 6.21838 12.4385H0.00100708Z" fill="#73E5E2"/>
</g>
<defs>
<linearGradient id="paint0_linear_1_466" x1="31.0954" y1="6.21926" x2="6.21832" y2="6.21926" gradientUnits="userSpaceOnUse">
<stop stop-color="#73E5E2"/>
<stop offset="1" stop-color="#394F87"/>
</linearGradient>
<linearGradient id="paint1_linear_1_466" x1="-0.00018229" y1="18.6577" x2="24.8769" y2="18.6577" gradientUnits="userSpaceOnUse">
<stop stop-color="#FBDC8E"/>
<stop offset="1" stop-color="#FB958E"/>
</linearGradient>
<clipPath id="clip0_1_466">
<rect width="128.293" height="25.6585" fill="white"/>
</clipPath>
</defs>
</svg>
