<svg width="130" height="35" viewBox="0 0 130 35" fill="none" xmlns="http://www.w3.org/2000/svg">
<g style="mix-blend-mode:luminosity">
<path d="M43.4559 23.253H46.2776V9.97473H43.4559V23.253Z" fill="#55AE36"/>
<path d="M52.066 23.5481C55.0167 23.5481 56.9531 21.6486 56.9531 18.2921C56.9531 15.0463 55.072 13.0177 52.066 13.0177C49.1152 13.0177 47.1973 14.9172 47.1973 18.2921C47.1973 21.5564 49.0599 23.5481 52.066 23.5481ZM52.066 21.2613C50.7935 21.2613 50.0927 20.2101 50.0927 18.2921C50.0927 16.3557 50.775 15.3045 52.066 15.3045C53.3569 15.3045 54.0577 16.3742 54.0577 18.2921C54.0577 20.2285 53.3754 21.2613 52.066 21.2613Z" fill="#55AE36"/>
<path d="M61.5436 23.2715C62.6132 23.2715 63.4985 22.8289 64.1255 21.9621V23.6219C64.1255 25.005 63.4431 25.4661 62.4288 25.4661C61.4514 25.4661 60.6953 24.9866 60.5846 24.1014H57.763C58.1134 26.5173 59.9391 27.6238 62.4657 27.6238C65.066 27.6238 66.9471 26.2407 66.9471 23.585V13.3312H64.1255V14.2533C63.5169 13.4419 62.6501 13.0177 61.5436 13.0177C59.0724 13.0177 57.4679 14.8619 57.4679 18.163C57.4679 21.3166 59.0355 23.2715 61.5436 23.2715ZM62.2259 20.9847C61.0088 20.9847 60.3633 19.9704 60.3633 18.163C60.3633 16.3004 61.0088 15.3045 62.2259 15.3045C63.4616 15.3045 64.1255 16.3188 64.1255 18.1446C64.1255 19.9888 63.48 20.9847 62.2259 20.9847Z" fill="#55AE36"/>
<path d="M72.7514 23.5481C75.7021 23.5481 77.6385 21.6486 77.6385 18.2921C77.6385 15.0463 75.7575 13.0177 72.7514 13.0177C69.8007 13.0177 67.8827 14.9172 67.8827 18.2921C67.8827 21.5564 69.7453 23.5481 72.7514 23.5481ZM72.7514 21.2613C71.4789 21.2613 70.7781 20.2101 70.7781 18.2921C70.7781 16.3557 71.4605 15.3045 72.7514 15.3045C74.0423 15.3045 74.7431 16.3742 74.7431 18.2921C74.7431 20.2285 74.0608 21.2613 72.7514 21.2613Z" fill="#55AE36"/>
<path d="M78.5774 12.3353H81.3994V9.97473H78.5774V12.3353ZM78.5774 23.253H81.3994V13.3312H78.5774V23.253Z" fill="#55AE36"/>
<path d="M85.5641 27.3287V22.2572C86.1542 23.1055 87.0026 23.5481 88.0537 23.5481C90.5803 23.5481 92.2217 21.6486 92.2217 18.2737C92.2217 15.0279 90.6172 13.0177 88.0537 13.0177C87.021 13.0177 86.1727 13.4972 85.5641 14.364V13.3312H82.7424V27.3287H85.5641ZM87.4636 15.3045C88.6623 15.3045 89.3263 16.3557 89.3263 18.2737C89.3263 20.2101 88.6808 21.2613 87.4636 21.2613C86.228 21.2613 85.5641 20.1917 85.5641 18.2737C85.5641 16.3557 86.2095 15.3045 87.4636 15.3045Z" fill="#55AE36"/>
<path d="M95.6103 16.0791C95.6103 15.5443 96.0898 15.1754 96.8274 15.1754C97.8233 15.1754 98.4135 15.5996 98.5794 16.6139H101.383C101.106 14.1058 99.2987 13.0177 96.9197 13.0177C94.264 13.0177 92.9177 14.5668 92.9177 16.2266C92.9177 20.2101 98.9298 18.495 98.9298 20.413C98.9298 21.0216 98.4319 21.4088 97.436 21.4088C96.3848 21.4088 95.6287 20.9109 95.4996 19.9888H92.678C93.0468 22.4416 94.8541 23.5481 97.3623 23.5481C99.9442 23.5481 101.751 22.2019 101.751 20.247C101.751 16.3188 95.6103 18.0339 95.6103 16.0791Z" fill="#55AE36"/>
<path d="M108.703 19.0298C108.703 20.3023 108.002 21.2613 106.914 21.2613C105.918 21.2613 105.439 20.6342 105.439 19.3617V13.3312H102.617V19.9334C102.617 22.4047 104 23.5481 105.881 23.5481C107.08 23.5481 108.058 23.0317 108.703 21.9252V23.253H111.525V13.3312H108.703V19.0298Z" fill="#55AE36"/>
<path d="M112.888 23.253H115.71V17.5544C115.71 16.2819 116.355 15.3045 117.333 15.3045C118.236 15.3045 118.679 15.95 118.679 17.204V23.253H121.482V17.5544C121.482 16.2819 122.146 15.3045 123.124 15.3045C124.027 15.3045 124.451 15.95 124.451 17.204V23.253H127.273V16.6323C127.273 14.1796 125.908 13.0177 124.064 13.0177C122.828 13.0177 121.777 13.5341 121.095 14.659C120.597 13.5525 119.601 13.0177 118.421 13.0177C117.277 13.0177 116.337 13.5156 115.71 14.5853V13.3312H112.888V23.253Z" fill="#55AE36"/>
<path d="M32.7551 27.3044C35.8117 24.5749 37.6861 20.8915 37.6861 16.8384C37.6861 8.42448 29.6088 1.60364 19.6449 1.60364C9.68107 1.60364 1.60376 8.42448 1.60376 16.8384C1.60376 25.2523 9.68107 32.0732 19.6449 32.0732C22.4716 32.0732 25.1465 31.5242 27.5282 30.5456C30.3259 32.2725 33.7537 33.5138 37.5393 33.252C35.5393 32.7436 33.8191 30.6843 32.7551 27.3044Z" fill="#B6EFA2"/>
<path d="M32.8752 16.8384C32.8752 23.0381 26.9518 28.064 19.645 28.064C12.3381 28.064 6.41479 23.0381 6.41479 16.8384C6.41479 10.6387 12.3381 5.61279 19.645 5.61279C26.9518 5.61279 32.8752 10.6387 32.8752 16.8384Z" fill="#88E169"/>
<path d="M28.0641 16.8384C28.0641 20.824 24.2947 24.0549 19.6449 24.0549C14.9951 24.0549 11.2257 20.824 11.2257 16.8384C11.2257 12.8528 14.9951 9.62195 19.6449 9.62195C24.2947 9.62195 28.0641 12.8528 28.0641 16.8384Z" fill="#55AE36"/>
</g>
</svg>
