<svg width="124" height="35" viewBox="0 0 124 35" fill="none" xmlns="http://www.w3.org/2000/svg">
<g style="mix-blend-mode:luminosity">
<path d="M41.245 22.4512V8.73029H38.9951V22.4512H41.245Z" fill="#43505C"/>
<path d="M42.6221 17.8776C42.6221 20.6808 44.5032 22.6725 47.3617 22.6725C50.2202 22.6725 52.1013 20.6808 52.1013 17.8776C52.1013 15.0744 50.2202 13.0826 47.3617 13.0826C44.5032 13.0826 42.6221 15.0744 42.6221 17.8776ZM44.8904 17.8776C44.8904 16.2362 45.8679 15.0928 47.3617 15.0928C48.8555 15.0928 49.8329 16.2362 49.8329 17.8776C49.8329 19.5005 48.8555 20.6623 47.3617 20.6623C45.8679 20.6623 44.8904 19.5005 44.8904 17.8776Z" fill="#43505C"/>
<path d="M52.8583 17.6932C52.8583 20.3488 54.5734 22.2668 57.1369 22.2668C58.4647 22.2668 59.6081 21.732 60.1798 20.8468V22.3959C60.1798 23.8897 59.2393 24.8856 57.6717 24.8856C56.2701 24.8856 55.3111 24.2032 55.182 23.0045H52.9137C53.2087 25.3835 55.0345 26.9327 57.5426 26.9327C60.4934 26.9327 62.3744 24.9962 62.3744 21.9902V13.3408H60.3827L60.2536 14.5765C59.7003 13.6175 58.5569 13.0458 57.2107 13.0458C54.6103 13.0458 52.8583 15.0191 52.8583 17.6932ZM55.1452 17.6379C55.1452 16.1256 56.1041 15.0191 57.5242 15.0191C59.0733 15.0191 60.1061 16.144 60.1061 17.6379C60.1061 19.1501 59.0733 20.312 57.5242 20.312C56.1226 20.312 55.1452 19.1685 55.1452 17.6379Z" fill="#43505C"/>
<path d="M63.4877 17.8776C63.4877 20.6808 65.3688 22.6725 68.2273 22.6725C71.0858 22.6725 72.9669 20.6808 72.9669 17.8776C72.9669 15.0744 71.0858 13.0826 68.2273 13.0826C65.3688 13.0826 63.4877 15.0744 63.4877 17.8776ZM65.756 17.8776C65.756 16.2362 66.7335 15.0928 68.2273 15.0928C69.7211 15.0928 70.6985 16.2362 70.6985 17.8776C70.6985 19.5005 69.7211 20.6623 68.2273 20.6623C66.7335 20.6623 65.756 19.5005 65.756 17.8776Z" fill="#43505C"/>
<path d="M75.4017 11.4782C76.1394 11.4782 76.748 10.888 76.748 10.1319C76.748 9.39422 76.1394 8.80408 75.4017 8.80408C74.6456 8.80408 74.0739 9.39422 74.0739 10.1319C74.0739 10.888 74.6456 11.4782 75.4017 11.4782ZM74.2768 22.4512H76.5267V13.3408H74.2768V22.4512Z" fill="#43505C"/>
<path d="M78.498 26.6744H80.6928V21.1971C81.2645 22.1376 82.5001 22.6909 83.8648 22.6909C86.5574 22.6909 88.1618 20.6254 88.125 17.7853C88.0696 14.9268 86.4283 13.0641 83.8464 13.0641C82.4632 13.0641 81.2092 13.6727 80.6559 14.7239L80.5268 13.3408H78.498V26.6744ZM80.785 17.896C80.785 16.2546 81.7809 15.1112 83.3485 15.1112C84.916 15.1112 85.8566 16.2731 85.8566 17.896C85.8566 19.5189 84.916 20.6623 83.3485 20.6623C81.7809 20.6623 80.785 19.5373 80.785 17.896Z" fill="#43505C"/>
<path d="M88.6959 19.7217C88.7697 21.5291 90.1713 22.6909 92.3475 22.6909C94.4867 22.6909 95.9437 21.5475 95.9437 19.7771C95.9437 18.4677 95.1322 17.5825 93.6384 17.2136L92.0339 16.8263C91.3516 16.6419 90.8905 16.4022 90.8905 15.812C90.8905 15.185 91.3885 14.7424 92.1999 14.7424C93.0483 14.7424 93.6015 15.2219 93.6015 16.0149H95.6486C95.5748 14.2076 94.2285 13.0641 92.2552 13.0641C90.3004 13.0641 88.8435 14.2076 88.8435 15.9411C88.8435 17.1214 89.5258 18.0988 91.2778 18.5599L92.8638 18.9656C93.454 19.1316 93.8228 19.4082 93.8228 19.9246C93.8228 20.6438 93.1405 20.9758 92.3106 20.9758C91.3147 20.9758 90.743 20.5147 90.743 19.7217H88.6959Z" fill="#43505C"/>
<path d="M100.611 22.691C101.847 22.691 103.027 22.1192 103.562 21.2709L103.709 22.4512H105.812V13.3408H103.562V18.1173C103.562 19.7587 102.935 20.6808 101.459 20.6808C100.316 20.6808 99.5229 20.1275 99.5229 18.2464V13.3408H97.2729V19.0394C97.2729 21.2156 98.4532 22.691 100.611 22.691Z" fill="#43505C"/>
<path d="M110.047 22.4512V17.2136C110.047 15.7382 110.914 15.0375 111.983 15.0375C113.053 15.0375 113.754 15.7198 113.754 17.0108V22.4512H115.948V17.2321C115.948 15.7382 116.797 15.0375 117.866 15.0375C118.954 15.0375 119.655 15.7198 119.655 17.0108V22.4512H121.831V16.4944C121.831 14.392 120.67 13.0641 118.457 13.0641C117.073 13.0641 115.985 13.7281 115.543 14.7977C115.045 13.7281 114.049 13.0641 112.537 13.0641C111.467 13.0641 110.508 13.5621 109.973 14.3735L109.863 13.3408H107.797V22.4512H110.047Z" fill="#43505C"/>
<path d="M104.653 30.593C104.988 30.593 105.279 30.3108 105.279 29.9756C105.279 29.6316 104.988 29.3494 104.653 29.3494C104.309 29.3494 104.018 29.6316 104.018 29.9756C104.018 30.3108 104.309 30.593 104.653 30.593Z" fill="#8E98A1"/>
<path d="M105.926 28.3174C105.926 29.6669 106.755 30.5753 107.964 30.5753C109.004 30.5753 109.798 29.9491 109.966 29.0142H109.172C109.022 29.5345 108.563 29.8433 108.017 29.8433C107.24 29.8433 106.747 29.2435 106.747 28.3086C106.747 27.356 107.267 26.7738 108.034 26.7738C108.563 26.7738 109.022 27.0561 109.163 27.6118H109.957C109.816 26.668 109.075 26.033 108.043 26.033C106.791 26.033 105.926 26.9591 105.926 28.3174Z" fill="#8E98A1"/>
<path d="M110.279 28.3086C110.279 29.6051 111.161 30.5754 112.484 30.5754C113.807 30.5754 114.689 29.6051 114.689 28.3086C114.689 27.012 113.807 26.0418 112.484 26.0418C111.161 26.0418 110.279 27.012 110.279 28.3086ZM111.117 28.3086C111.117 27.4266 111.655 26.7827 112.484 26.7827C113.313 26.7827 113.851 27.4266 113.851 28.3086C113.851 29.1906 113.313 29.8345 112.484 29.8345C111.655 29.8345 111.117 29.1906 111.117 28.3086Z" fill="#8E98A1"/>
<path d="M116.226 30.4783V27.8852C116.226 27.2061 116.649 26.7651 117.267 26.7651C117.858 26.7651 118.228 27.1443 118.228 27.8235V30.4783H119.039V27.894C119.039 27.2061 119.454 26.7651 120.08 26.7651C120.662 26.7651 121.033 27.1443 121.033 27.8235V30.4783H121.835V27.6471C121.835 26.6504 121.253 26.0418 120.265 26.0418C119.595 26.0418 119.075 26.3682 118.863 26.8974C118.643 26.3682 118.157 26.0418 117.452 26.0418C116.914 26.0418 116.437 26.2888 116.199 26.7121L116.138 26.1653H115.397V30.4783H116.226Z" fill="#8E98A1"/>
<path fill-rule="evenodd" clip-rule="evenodd" d="M1.60352 17.9893L1.60506 17.8286L1.60825 17.6678L1.6131 17.507L1.61958 17.3463L1.62773 17.1855L1.63752 17.0247L1.64897 16.8641L1.66207 16.7034L1.67682 16.5428L1.69322 16.3822L1.71128 16.2218L1.73098 16.0614L1.75234 15.9012L1.77536 15.7412L1.80001 15.5813L1.82632 15.4216L1.85428 15.2621L1.88388 15.1028L1.91512 14.9438L1.94801 14.7849L1.98255 14.6263L2.01871 14.468L2.05653 14.3101L2.09596 14.1523L2.13704 13.995L2.17973 13.8379L2.22407 13.6813L2.27002 13.525L2.31759 13.3691L2.36678 13.2136L2.41758 13.0586L2.47 12.9039L2.52402 12.7497L2.57963 12.596L2.63685 12.4428L2.69566 12.29L2.75606 12.1378L2.81804 11.9861L2.8816 11.8351L2.94673 11.6845L3.01344 11.5345L3.0817 11.3851L3.15153 11.2363L3.22291 11.0882L3.29583 10.9406L3.3703 10.7938L3.4463 10.6476L3.52382 10.5021L3.60287 10.3574L3.68343 10.2133L3.7655 10.0699L3.84907 9.92735L3.93414 9.7855L4.02069 9.64446L4.10872 9.50422L4.19822 9.36478L4.28919 9.22623L4.38161 9.08839L4.47548 8.95152L4.5708 8.81545L4.66754 8.68026L4.7657 8.54604L4.86528 8.41261L4.96626 8.28023L5.06864 8.14873L5.17241 8.01814L5.27755 7.88857L5.38407 7.75997L5.49194 7.63237L5.60116 7.50577L5.71173 7.38019L5.82362 7.25566L5.93683 7.13217L6.05135 7.00975L6.16717 6.8884L6.28427 6.76814L6.40266 6.64898L6.52231 6.53093L6.64321 6.41402L6.76536 6.29824L6.88875 6.18363L7.01335 6.07017L7.13917 5.9579L7.26619 5.84681L7.39439 5.73692L7.52377 5.62826L7.6543 5.52082L7.786 5.41462L7.91883 5.30967L8.05279 5.20598L8.18782 5.10357L8.32405 5.00243L8.46132 4.9026L8.59964 4.80408L8.73899 4.70688L8.87947 4.611L9.02092 4.51646L9.1634 4.42328L9.30693 4.33145L9.4515 4.24101L9.59695 4.15194L9.74345 4.06426L9.89082 3.97799L10.0392 3.89313L10.1885 3.80969L10.3386 3.72769L10.4897 3.64712L10.6417 3.56802L10.7945 3.49036L10.9482 3.41418L11.1027 3.33947L11.2581 3.26625L11.4142 3.19452L11.5712 3.12431L11.7289 3.0556L11.8875 2.98841L12.0467 2.92276L12.2067 2.85864L12.3674 2.79605L12.5288 2.73503L12.6908 2.67556L12.8536 2.61767L13.017 2.56134L13.181 2.50659L13.3457 2.45344L13.5109 2.40187L13.6768 2.35191L13.8433 2.30356L14.0102 2.25682L14.1778 2.2117L14.3459 2.1682L14.5144 2.12633L14.6834 2.08611L14.853 2.04752L15.023 2.01059L15.1934 1.9753L15.3643 1.94167L15.5355 1.90971L15.7072 1.87941L15.8793 1.85079L16.0517 1.82384L16.2244 1.79856L16.3974 1.77498L16.5708 1.75308L16.7445 1.73288L16.9184 1.71435L17.0925 1.69755L17.2669 1.68243L17.4416 1.66902L17.6164 1.65732L18.5564 1.60364L18.6101 6.13291L18.6408 6.13255L18.7706 6.13237L18.9004 6.13346L19.0302 6.13583L19.1602 6.13947L19.2901 6.1444L19.4201 6.15059L19.5501 6.15807L19.68 6.16683L19.8099 6.17686L19.9399 6.18818L20.0697 6.20079L20.1995 6.21468L20.3292 6.22984L20.4589 6.24628L20.5883 6.26401L20.7178 6.28302L20.847 6.30331L20.9762 6.32488L21.1051 6.34772L21.234 6.37185L21.3626 6.39725L21.491 6.42394L21.6193 6.45189L21.7472 6.48112L21.875 6.51161L22.0025 6.54338L22.1298 6.57642L22.2567 6.61072L22.3834 6.64629L22.5098 6.68312L22.6359 6.72121L22.7616 6.76055L22.887 6.80116L23.0121 6.84301L23.1368 6.88611L23.2611 6.93046L23.385 6.97605L23.5085 7.02288L23.6316 7.07094L23.7543 7.12025L23.8765 7.17078L23.9982 7.22253L24.1195 7.27551L24.2404 7.3297L24.3606 7.38511L24.4804 7.44172L24.5997 7.49954L24.7185 7.55856L24.8367 7.61878L24.9543 7.68018L25.0714 7.74277L25.1879 7.80655L25.3037 7.8715L25.419 7.93762L25.5337 8.0049L25.6477 8.07336L25.7611 8.14296L25.8738 8.21368L25.9859 8.2856L26.0972 8.35857L26.2079 8.43274L26.3179 8.50803L26.4271 8.58436L26.5357 8.6619L26.6434 8.74048L26.7504 8.82018L26.8567 8.901L26.9622 8.98287L27.0669 9.06586L27.1707 9.14981L27.2738 9.23489L27.3761 9.32108L27.4775 9.40824L27.5781 9.49644L27.6779 9.58569L27.7767 9.67597L27.8747 9.7673L27.9718 9.85959L28.068 9.95284L28.1632 10.0471L28.2576 10.1424L28.351 10.2387L28.4435 10.3359L28.535 10.434L28.6256 10.5331L28.7152 10.6332L28.8038 10.7341L28.8915 10.8361L28.978 10.9389L29.0637 11.0425L29.1483 11.1472L29.2318 11.2526L29.3143 11.3589L29.3958 11.4661L29.4762 11.5742L29.5555 11.6831L29.6338 11.7929L29.7109 11.9035L29.787 12.0147L29.862 12.1269L29.9358 12.2399L30.0086 12.3537L30.0801 12.4682L30.1506 12.5834L30.2198 12.6994L30.288 12.8162L30.3549 12.9336L30.4208 13.0518L30.4854 13.1707L30.5488 13.2903L30.6111 13.4106L30.6721 13.5315L30.7319 13.653L30.7905 13.7753L30.8479 13.8982L30.904 14.0216L30.959 14.1458L31.0126 14.2705L31.065 14.3958L31.1161 14.5216L31.166 14.648L31.2146 14.775L31.2619 14.9025L31.3079 15.0305L31.3527 15.1591L31.3961 15.2881L31.4383 15.4177L31.4791 15.5477L31.5186 15.6781L31.5568 15.8091L31.5937 15.9404L31.6292 16.0722L31.6635 16.2045L31.6963 16.337L31.7278 16.47L31.758 16.6034L31.7868 16.7371L31.8143 16.8711L31.8403 17.0056L31.865 17.1403L31.8884 17.2753L31.9104 17.4106L31.931 17.5462L31.9503 17.6821L31.9681 17.8181L31.9845 17.9545L31.9996 18.0911L32.0132 18.2279L32.0255 18.3648L32.0364 18.502L32.0458 18.6394L32.0539 18.7769L32.0605 18.9145L32.0658 19.0523L32.0696 19.1902L32.0721 19.3282L32.073 19.4662L32.0726 19.6044L32.0708 19.7426L32.0675 19.8809L32.0628 20.0192L32.0567 20.1575L32.0493 20.2958L32.0403 20.4341L32.03 20.5724L32.0182 20.7107L32.005 20.8489L31.9904 20.9871L31.9742 21.1251L31.9568 21.263L31.9379 21.4009L31.9176 21.5386L31.8958 21.6762L31.8727 21.8137L31.848 21.9509L31.8221 22.088L31.7946 22.225L31.7658 22.3617L31.7355 22.4982L31.7038 22.6345L31.6707 22.7705L31.6362 22.9062L31.6003 23.0417L31.563 23.1769L31.5243 23.3117L31.4842 23.4463L31.4426 23.5806L31.3997 23.7144L31.3554 23.848L31.3097 23.9811L31.2625 24.1139L31.2141 24.2463L31.1642 24.3782L31.113 24.5097L31.0604 24.6408L31.0064 24.7714L30.9511 24.9015L30.8944 25.0312L30.8364 25.1603L30.777 25.289L30.7162 25.4172L30.6541 25.5447L30.5906 25.6718L30.5259 25.7983L30.4597 25.9242L30.3924 26.0495L30.3236 26.1743L30.2536 26.2983L30.1822 26.4218L30.1096 26.5446L30.0357 26.6667L29.9604 26.7883L29.8839 26.909L29.8061 27.0292L29.7271 27.1486L29.6468 27.2672L29.5652 27.3852L29.4824 27.5024L29.3984 27.6188L29.3131 27.7345L29.2265 27.8494L29.1388 27.9635L29.0499 28.0767L28.9598 28.1892L28.8684 28.3009L28.7759 28.4116L28.6822 28.5215L28.5873 28.6306L28.4913 28.7387L28.3941 28.846L28.2958 28.9524L28.1963 29.0579L28.0957 29.1624L27.994 29.2659L27.8912 29.3686L27.7873 29.4702L27.6823 29.571L27.5762 29.6707L27.4691 29.7694L27.3608 29.8672L27.2515 29.9638L27.1413 30.0594L27.0299 30.1541L26.9176 30.2477L26.8042 30.3402L26.6899 30.4316L26.5745 30.522L26.4581 30.6113L26.3408 30.6994L26.2226 30.7865L26.1034 30.8724L25.9832 30.9572L25.8621 31.0409L25.7402 31.1234L25.6173 31.2047L25.4935 31.2849L25.3689 31.3639L25.2434 31.4417L25.1171 31.5184L24.9898 31.5937L24.8618 31.668L24.733 31.741L24.6033 31.8126L24.4729 31.8832L24.3416 31.9524L24.2096 32.0204L24.0769 32.0872L23.9434 32.1526L23.8091 32.2168L23.6742 32.2797L23.5385 32.3413L23.4022 32.4016L23.2652 32.4605L23.1275 32.5182L22.9892 32.5745L22.8502 32.6295L22.7106 32.6832L22.5704 32.7355L22.4296 32.7865L22.2881 32.8361L22.1462 32.8843L22.0037 32.9312L21.8606 32.9767L21.717 33.0208L21.5729 33.0635L21.4283 33.1048L21.2832 33.1447L21.1377 33.1833L20.9916 33.2203L20.8452 33.256L20.6983 33.2903L20.5509 33.3231L20.4032 33.3545L20.2551 33.3845L20.1066 33.4131L19.9578 33.4402L19.8086 33.4658L19.6591 33.49L19.5093 33.5128L19.3591 33.534L19.2088 33.5538L19.0581 33.5722L18.9072 33.589L18.756 33.6044L18.6046 33.6184L18.4531 33.6308L18.3013 33.6418L18.1493 33.6512L17.9972 33.6592L17.8449 33.6657L17.6925 33.6707L17.54 33.6742L17.3874 33.6762L17.2346 33.6768L17.0819 33.6758L16.929 33.6734L16.7761 33.6694L16.6232 33.6639L16.4703 33.6569L16.3174 33.6485L16.1646 33.6385L16.0117 33.627L15.8589 33.614L15.7062 33.5995L15.5535 33.5836L15.401 33.5661L15.2486 33.5471L15.0962 33.5265L14.9441 33.5045L14.7921 33.481L14.6403 33.456L14.4887 33.4295L14.3372 33.4015L14.1861 33.372L14.0351 33.341L13.8844 33.3084L13.7339 33.2744L13.5838 33.239L13.4339 33.202L13.2844 33.1636L13.1352 33.1236L12.9864 33.0822L12.8379 33.0394L12.6897 32.995L12.542 32.9491L12.3947 32.9018L12.2478 32.8531L12.1013 32.8028L11.9553 32.7511L11.8098 32.698L11.6647 32.6434L11.5201 32.5874L11.3761 32.5299L11.2326 32.4709L11.0896 32.4106L10.9472 32.3488L10.8054 32.2856L10.6641 32.221L10.5235 32.1549L10.3835 32.0875L10.2441 32.0186L10.1053 31.9484L9.96724 31.8768L9.82988 31.8037L9.69309 31.7294L9.5571 31.6536L9.42183 31.5765L9.28729 31.498L9.15346 31.4181L9.02044 31.337L8.88813 31.2544L8.75663 31.1706L8.62602 31.0854L8.49612 30.9989L8.36711 30.9111L8.23897 30.822L8.11164 30.7316L7.9852 30.6399L7.85965 30.5469L7.735 30.4527L7.61127 30.3572L7.48846 30.2605L7.36659 30.1624L7.24568 30.0632L7.12574 29.9627L7.00677 29.8611L6.8888 29.7582L6.77183 29.654L6.65589 29.5487L6.54098 29.4423L6.4271 29.3347L6.31429 29.2259L6.20255 29.1159L6.09188 29.0049L5.98231 28.8927L5.87385 28.7793L5.7665 28.6649L5.66028 28.5494L5.55521 28.4327L5.45129 28.315L5.34852 28.1962L5.24694 28.0763L5.14654 27.9555L5.04735 27.8336L4.94936 27.7106L4.85259 27.5867L4.75705 27.4618L4.66276 27.3358L4.56971 27.2088L4.47794 27.081L4.38743 26.9521L4.29821 26.8224L4.21028 26.6917L4.12366 26.56L4.03835 26.4275L3.95436 26.2941L3.87171 26.1598L3.7904 26.0247L3.71044 25.8886L3.63186 25.7518L3.55463 25.6142L3.47879 25.4757L3.40434 25.3363L3.33127 25.1963L3.25963 25.0555L3.18939 24.9139L3.12058 24.7715L3.05321 24.6284L2.98726 24.4846L2.92277 24.3401L2.85973 24.1949L2.79816 24.049L2.73806 23.9025L2.67943 23.7553L2.6223 23.6074L2.56666 23.459L2.51251 23.31L2.45987 23.1603L2.40874 23.0102L2.35913 22.8593L2.31105 22.708L2.2645 22.5562L2.21949 22.4038L2.17602 22.2509L2.1341 22.0975L2.09374 21.9437L2.05494 21.7894L2.0177 21.6347L1.98204 21.4795L1.94796 21.3239L1.91545 21.1679L1.88453 21.0116L1.8552 20.8549L1.82747 20.6978L1.80133 20.5404L1.7768 20.3827L1.75387 20.2247L1.73256 20.0663L1.71287 19.9077L1.69479 19.7489L1.67833 19.5898L1.66349 19.4305L1.65029 19.271L1.63871 19.1113L1.62877 18.9514L1.62046 18.7913L1.61379 18.6311L1.60875 18.4708L1.60536 18.3104L1.60362 18.1499L1.60352 17.9893ZM17.1414 6.22778L17.1049 3.14058L17.0702 3.14393L16.9108 3.16089L16.7518 3.1794L16.5928 3.19948L16.4346 3.22105L16.2764 3.24419L16.1185 3.26888L15.961 3.29508L15.8037 3.32285L15.6472 3.35206L15.4904 3.3829L15.3348 3.41514L15.1789 3.449L15.0238 3.4843L14.8689 3.52116L14.7147 3.55944L14.5609 3.59926L14.4075 3.64056L14.2546 3.68336L14.1024 3.72759L13.9505 3.77334L13.7993 3.82051L13.6486 3.86918L13.4987 3.9192L13.349 3.9708L13.2001 4.02377L13.0519 4.07815L12.9041 4.13402L12.7571 4.19124L12.6109 4.24985L12.4652 4.30996L12.3201 4.37144L12.1758 4.43432L12.0323 4.49852L11.8895 4.56412L11.7475 4.63104L11.6059 4.69944L11.4655 4.76908L11.3257 4.84009L11.1867 4.91243L11.0486 4.98611L10.9114 5.06105L10.7748 5.13737L10.639 5.21502L10.5045 5.29378L10.3703 5.37407L10.2375 5.45543L10.1055 5.53806L9.97413 5.62205L9.84383 5.70726L9.7145 5.79371L9.58637 5.88118L9.45872 5.9702L9.33235 6.06017L9.20694 6.15139L9.08242 6.24386L8.95902 6.33742L8.83674 6.43211L8.71518 6.52813L8.59499 6.62506L8.47567 6.72327L8.35748 6.82254L8.24034 6.92297L8.12439 7.02436L8.00931 7.12704L7.89555 7.23063L7.78276 7.33541L7.67127 7.44107L7.5608 7.54789L7.45156 7.65566L7.34343 7.7645L7.23636 7.87446L7.13069 7.98518L7.0262 8.09685L6.92264 8.20983L6.82052 8.32353L6.71965 8.43803L6.61982 8.55373L6.52143 8.67016L6.42414 8.78763L6.32815 8.9059L6.23342 9.02513L6.13993 9.14516L6.04781 9.266L5.9569 9.38772L5.86724 9.5104L5.77903 9.63364L5.69199 9.75792L5.60634 9.88284L5.52201 10.0086L5.43895 10.1351L5.35729 10.2624L5.27697 10.3902L5.198 10.5189L5.12043 10.6483L5.04415 10.7784L4.96923 10.9093L4.89579 11.0406L4.82367 11.1727L4.75292 11.3055L4.68361 11.4388L4.61567 11.5728L4.54918 11.7072L4.48408 11.8424L4.42041 11.978L4.35814 12.1143L4.29733 12.251L4.23791 12.3884L4.17994 12.5262L4.12345 12.6645L4.06837 12.8033L4.01474 12.9425L3.96258 13.0822L3.91186 13.2224L3.86265 13.3629L3.81485 13.5039L3.76853 13.6453L3.7237 13.787L3.68036 13.929L3.63845 14.0716L3.59807 14.2143L3.55915 14.3575L3.52172 14.5008L3.48577 14.6446L3.45132 14.7885L3.41837 14.9328L3.3869 15.0773L3.35694 15.222L3.32847 15.3669L3.3015 15.512L3.27604 15.6573L3.25207 15.8028L3.22961 15.9484L3.20865 16.0942L3.1892 16.2401L3.17124 16.3862L3.1548 16.5323L3.13986 16.6785L3.12643 16.8248L3.1145 16.971L3.10407 17.1174L3.09516 17.2638L3.08774 17.4102L3.08183 17.5566L3.07742 17.7029L3.07452 17.8493L3.07311 17.9955L3.0732 18.1418L3.07479 18.2879L3.07788 18.434L3.08246 18.5799L3.08853 18.7257L3.0961 18.8714L3.10514 19.0168L3.11568 19.1622L3.1277 19.3073L3.1412 19.4523L3.15617 19.5971L3.17262 19.7416L3.19054 19.8859L3.20993 20.0299L3.23079 20.1737L3.25311 20.3172L3.27688 20.4603L3.30211 20.6032L3.32879 20.7458L3.35691 20.888L3.38647 21.0299L3.41747 21.1713L3.4499 21.3124L3.48377 21.4532L3.51905 21.5935L3.55575 21.7334L3.59386 21.8728L3.63339 22.0118L3.67431 22.1504L3.71663 22.2884L3.76035 22.426L3.80543 22.5631L3.85191 22.6996L3.89976 22.8356L3.94898 22.9711L3.99954 23.106L4.05149 23.2404L4.10476 23.3741L4.15937 23.5073L4.21533 23.6398L4.2726 23.7717L4.33121 23.9031L4.39112 24.0338L4.45234 24.1637L4.51485 24.2931L4.57866 24.4217L4.64375 24.5497L4.71011 24.6769L4.77774 24.8034L4.84663 24.9293L4.91677 25.0543L4.98815 25.1785L5.06076 25.3021L5.13461 25.4248L5.20964 25.5467L5.28592 25.6679L5.36337 25.7882L5.44203 25.9077L5.52187 26.0264L5.60286 26.1442L5.68502 26.2612L5.76835 26.3773L5.8528 26.4925L5.93841 26.6068L6.02511 26.7202L6.11296 26.8327L6.20187 26.9442L6.2919 27.0549L6.38304 27.1647L6.47519 27.2734L6.56844 27.3812L6.66273 27.488L6.75809 27.5938L6.85446 27.6986L6.95182 27.8024L7.05022 27.9052L7.14961 28.0071L7.25001 28.1079L7.35136 28.2075L7.45371 28.3062L7.55697 28.4038L7.66118 28.5004L7.76636 28.5959L7.87243 28.6903L7.97936 28.7836L8.08727 28.8758L8.19608 28.9669L8.30561 29.0568L8.41618 29.1457L8.52747 29.2334L8.63965 29.32L8.75263 29.4055L8.86649 29.4897L8.98107 29.5728L9.09645 29.6547L9.21255 29.7355L9.32954 29.8151L9.44717 29.8935L9.56568 29.9707L9.68475 30.0467L9.80463 30.1214L9.92522 30.195L10.0464 30.2673L10.1683 30.3385L10.2909 30.4083L10.4141 30.4769L10.5379 30.5443L10.6624 30.6105L10.7874 30.6753L10.9131 30.739L11.0394 30.8013L11.1662 30.8624L11.2935 30.9222L11.4214 30.9807L11.5498 31.0379L11.6788 31.0939L11.8082 31.1485L11.9382 31.2019L12.0686 31.2539L12.1994 31.3046L12.3308 31.3541L12.4624 31.4022L12.5946 31.4489L12.7272 31.4944L12.8602 31.5386L12.9935 31.5814L13.1271 31.6228L13.2612 31.663L13.3955 31.7018L13.5302 31.7393L13.6653 31.7754L13.8005 31.8102L13.9361 31.8437L14.0719 31.8757L14.208 31.9065L14.3443 31.9359L14.4808 31.9639L14.6176 31.9906L14.7546 32.016L14.8917 32.04L15.0289 32.0626L15.1664 32.0838L15.304 32.1037L15.4417 32.1222L15.5795 32.1395L15.7174 32.1553L15.8554 32.1697L15.9935 32.1828L16.1316 32.1945L16.2698 32.205L16.4079 32.2139L16.5462 32.2216L16.6843 32.2279L16.8225 32.2329L16.9606 32.2365L17.0988 32.2386L17.2368 32.2395L17.3748 32.239L17.5127 32.2372L17.6504 32.2341L17.7881 32.2295L17.9257 32.2236L18.0631 32.2164L18.2003 32.2079L18.3375 32.198L18.4744 32.1868L18.6111 32.1742L18.7476 32.1602L18.8839 32.145L19.0199 32.1285L19.1557 32.1106L19.2912 32.0914L19.4265 32.0708L19.5614 32.049L19.6962 32.0258L19.8305 32.0014L19.9645 31.9756L20.0982 31.9486L20.2315 31.9202L20.3645 31.8907L20.497 31.8597L20.6292 31.8275L20.761 31.794L20.8923 31.7592L21.0232 31.7232L21.1537 31.6859L21.2837 31.6474L21.4133 31.6076L21.5423 31.5666L21.6709 31.5243L21.799 31.4808L21.9264 31.4361L22.0534 31.3901L22.1799 31.3429L22.3058 31.2945L22.4311 31.2449L22.5558 31.1942L22.6799 31.1421L22.8035 31.089L22.9264 31.0346L23.0486 30.9791L23.1703 30.9224L23.2913 30.8645L23.4116 30.8056L23.5313 30.7454L23.6502 30.6841L23.7685 30.6218L23.8861 30.5582L24.0029 30.4935L24.119 30.4278L24.2343 30.361L24.349 30.293L24.4627 30.2241L24.5759 30.1539L24.6881 30.0828L24.7996 30.0105L24.9103 29.9372L25.0202 29.8628L25.1291 29.7876L25.2373 29.7112L25.3446 29.6338L25.4511 29.5555L25.5568 29.476L25.6614 29.3958L25.7654 29.3143L25.8683 29.232L25.9703 29.1488L26.0716 29.0645L26.1718 28.9793L26.271 28.8933L26.3694 28.8062L26.4667 28.7183L26.5632 28.6295L26.6587 28.5397L26.7531 28.4492L26.8466 28.3576L26.9392 28.2653L27.0306 28.1721L27.1212 28.078L27.2106 27.9833L27.2989 27.8877L27.3865 27.791L27.4728 27.6938L27.5582 27.5957L27.6424 27.4969L27.7256 27.3972L27.8077 27.2969L27.8887 27.1958L27.9687 27.0939L28.0475 26.9914L28.1254 26.888L28.202 26.7841L28.2776 26.6794L28.3521 26.574L28.4253 26.4681L28.4975 26.3614L28.5685 26.2542L28.6384 26.1462L28.7073 26.0375L28.7748 25.9285L28.8412 25.8188L28.9065 25.7082L28.9705 25.5975L29.0335 25.486L29.0953 25.3739L29.1557 25.2614L29.2151 25.1482L29.2734 25.0345L29.3302 24.9208L29.386 24.806L29.4406 24.6909L29.4939 24.5754L29.5461 24.4595L29.597 24.343L29.6466 24.2263L29.6951 24.1089L29.7424 23.9912L29.7883 23.8734L29.833 23.7547L29.8765 23.6361L29.9188 23.5168L29.9599 23.3974L29.9997 23.2775L30.0381 23.1576L30.0754 23.0369L30.1114 22.9163L30.1461 22.7953L30.1796 22.6741L30.2118 22.5525L30.2427 22.4308L30.2724 22.3088L30.3008 22.1865L30.328 22.0642L30.3539 21.9415L30.3784 21.8189L30.4018 21.6957L30.4238 21.5729L30.4446 21.4496L30.4641 21.3262L30.4823 21.2027L30.4993 21.0791L30.5149 20.9556L30.5293 20.8316L30.5424 20.708L30.5543 20.5841L30.5648 20.4603L30.5741 20.3362L30.5821 20.2126L30.5888 20.0885L30.5943 19.9644L30.5985 19.8406L30.6014 19.717L30.603 19.593L30.6034 19.4692L30.6026 19.3456L30.6004 19.222L30.5969 19.0984L30.5922 18.9753L30.5863 18.8518L30.5791 18.7288L30.5706 18.6058L30.5609 18.4832L30.5499 18.3603L30.5377 18.2381L30.5242 18.1157L30.5095 17.9937L30.4935 17.8719L30.4763 17.7504L30.4578 17.6288L30.4382 17.5078L30.4173 17.3872L30.3952 17.2666L30.3718 17.1463L30.3472 17.0265L30.3214 16.9066L30.2946 16.7876L30.2663 16.6685L30.237 16.5501L30.2063 16.4316L30.1745 16.314L30.1416 16.1965L30.1074 16.0793L30.0721 15.9628L30.0357 15.8467L29.9979 15.7307L29.9592 15.6155L29.9191 15.5005L29.878 15.3861L29.8357 15.272L29.7923 15.1587L29.7476 15.0456L29.7019 14.9331L29.6552 14.8213L29.6073 14.71L29.5581 14.5989L29.5081 14.4888L29.4567 14.3788L29.4045 14.2698L29.3511 14.1612L29.2965 14.0531L29.241 13.9458L29.1843 13.839L29.1265 13.7327L29.0679 13.6274L29.008 13.5223L28.9473 13.4182L28.8853 13.3145L28.8226 13.2119L28.7585 13.1095L28.6937 13.0081L28.6277 12.9071L28.5609 12.807L28.4931 12.7079L28.4241 12.6091L28.3543 12.5112L28.2836 12.414L28.2118 12.3177L28.1392 12.2219L28.0656 12.1272L27.9911 12.033L27.9156 11.9398L27.8393 11.8473L27.762 11.7556L27.6838 11.6648L27.6048 11.5747L27.5251 11.4855L27.4443 11.3972L27.3625 11.3095L27.2803 11.2231L27.1968 11.1371L27.1128 11.0524L27.0279 10.9683L26.9423 10.8852L26.8555 10.8028L26.7684 10.7216L26.6802 10.6411L26.5913 10.5616L26.5019 10.4831L26.4116 10.4055L26.3203 10.3286L26.2285 10.2528L26.136 10.178L26.0428 10.1041L25.9488 10.0312L25.8544 9.95942L25.7589 9.88822L25.663 9.81838L25.5664 9.74942L25.4691 9.68134L25.3713 9.61439L25.2726 9.54824L25.1738 9.48345L25.0739 9.41939L24.9736 9.35644L24.8726 9.29446L24.7712 9.23352L24.6692 9.17371L24.5668 9.11501L24.4634 9.05704L24.3601 9.00043L24.2558 8.94471L24.1512 8.8901L24.0462 8.83662L23.9405 8.7841L23.8344 8.73262L23.7279 8.68235L23.6209 8.63303L23.5136 8.58492L23.4057 8.53778L23.294 8.49031L23.189 8.44693L23.0797 8.40299L22.9706 8.36041L22.8606 8.31864L22.7506 8.27822L22.6401 8.23877L22.5293 8.20053L22.4181 8.16324L22.3068 8.12724L22.1951 8.09228L22.083 8.05844L21.9709 8.02581L21.8584 7.99418L21.7454 7.96365L21.6326 7.93436L21.5195 7.90618L21.4057 7.87904L21.2924 7.85315L21.1784 7.82829L21.0645 7.80464L20.9501 7.78206L20.836 7.76067L20.7215 7.74038L20.607 7.72127L20.492 7.70323L20.3774 7.68639L20.2625 7.67065L20.1474 7.65605L20.0324 7.6426L19.9173 7.6303L19.8022 7.61912L19.6869 7.60908L19.5716 7.60017L19.4562 7.5924L19.3412 7.58577L19.226 7.58028L19.1105 7.57591L18.9956 7.57269L18.8805 7.57059L18.7654 7.56962L18.6502 7.56978L18.6271 7.57005L18.6634 10.6348L18.7287 10.6345L18.8129 10.635L18.897 10.6362L18.9812 10.6384L19.0654 10.6414L19.1497 10.6452L19.234 10.6499L19.3183 10.6553L19.4027 10.6617L19.487 10.6688L19.5714 10.6768L19.6557 10.6856L19.74 10.6953L19.8243 10.7058L19.9085 10.7171L19.9927 10.7294L20.0768 10.7424L20.1608 10.7563L20.2448 10.771L20.3287 10.7866L20.4125 10.803L20.4962 10.8203L20.5798 10.8383L20.6633 10.8572L20.7466 10.877L20.8299 10.8976L20.9128 10.919L20.9958 10.9413L21.0785 10.9644L21.1611 10.9884L21.2435 11.0132L21.3257 11.0388L21.4077 11.0652L21.4894 11.0925L21.5711 11.1206L21.6524 11.1496L21.7335 11.1793L21.8143 11.2099L21.895 11.2413L21.9754 11.2735L22.0555 11.3066L22.1352 11.3405L22.2148 11.3751L22.294 11.4107L22.3729 11.4469L22.4515 11.484L22.5298 11.5219L22.6078 11.5607L22.6854 11.6002L22.7627 11.6405L22.8396 11.6816L22.9161 11.7235L22.9923 11.7662L23.0681 11.8096L23.1435 11.8539L23.2186 11.899L23.2932 11.9447L23.3673 11.9913L23.4411 12.0387L23.5145 12.0868L23.5873 12.1357L23.6598 12.1853L23.7318 12.2357L23.8034 12.2868L23.8744 12.3387L23.945 12.3914L24.0151 12.4447L24.0846 12.4988L24.1538 12.5537L24.2223 12.6091L24.2904 12.6654L24.3579 12.7224L24.4249 12.7801L24.4914 12.8385L24.5573 12.8976L24.6227 12.9574L24.6874 13.0178L24.7516 13.079L24.8152 13.1408L24.8782 13.2034L24.9407 13.2666L25.0025 13.3305L25.0638 13.3949L25.1243 13.4601L25.1843 13.526L25.2436 13.5924L25.3023 13.6595L25.3604 13.7272L25.4178 13.7955L25.4745 13.8645L25.5306 13.9341L25.586 14.0042L25.6407 14.075L25.6947 14.1464L25.748 14.2184L25.8006 14.2909L25.8526 14.364L25.9038 14.4377L25.9543 14.512L26.004 14.5868L26.053 14.6621L26.1012 14.738L26.1488 14.8144L26.1956 14.8913L26.2416 14.9688L26.2869 15.0468L26.3314 15.1252L26.3751 15.2042L26.418 15.2836L26.4601 15.3636L26.5015 15.444L26.542 15.5249L26.5818 15.6063L26.6207 15.6881L26.6588 15.7703L26.6961 15.853L26.7326 15.9361L26.7683 16.0196L26.8031 16.1036L26.8371 16.1879L26.8702 16.2727L26.9024 16.3578L26.9339 16.4433L26.9644 16.5292L26.9942 16.6155L27.023 16.7021L27.0509 16.7891L27.078 16.8763L27.1043 16.964L27.1296 17.0519L27.154 17.1402L27.1775 17.2288L27.2002 17.3176L27.222 17.4068L27.2428 17.4962L27.2628 17.5859L27.2818 17.6759L27.2999 17.7661L27.3171 17.8566L27.3333 17.9473L27.3487 18.0382L27.3632 18.1293L27.3766 18.2207L27.3892 18.3122L27.4008 18.404L27.4116 18.4959L27.4213 18.5881L27.4301 18.6803L27.4381 18.7727L27.445 18.8653L27.451 18.9579L27.4559 19.0507L27.46 19.1437L27.4632 19.2367L27.4653 19.3298L27.4665 19.4231L27.4668 19.5164L27.466 19.6098L27.4644 19.7032L27.4617 19.7967L27.4581 19.8902L27.4535 19.9837L27.448 20.0773L27.4415 20.171L27.434 20.2645L27.4255 20.3581L27.4162 20.4517L27.4057 20.5452L27.3944 20.6387L27.3821 20.7322L27.3688 20.8256L27.3545 20.9189L27.3393 21.0122L27.3231 21.1053L27.3058 21.1984L27.2877 21.2914L27.2685 21.3843L27.2484 21.4771L27.2274 21.5697L27.2054 21.6621L27.1824 21.7544L27.1584 21.8466L27.1334 21.9386L27.1075 22.0304L27.0807 22.122L27.0529 22.2134L27.0241 22.3046L26.9942 22.3956L26.9635 22.4863L26.9319 22.5768L26.8993 22.6671L26.8657 22.7571L26.8312 22.8468L26.7957 22.9363L26.7593 23.0255L26.7219 23.1144L26.6836 23.2029L26.6444 23.2912L26.6042 23.3792L26.5631 23.4667L26.5211 23.554L26.4781 23.6409L26.4342 23.7274L26.3893 23.8136L26.3436 23.8993L26.297 23.9847L26.2494 24.0697L26.201 24.1543L26.1516 24.2384L26.1013 24.3222L26.0502 24.4054L25.9981 24.4883L25.9451 24.5707L25.8913 24.6526L25.8366 24.734L25.781 24.815L25.7245 24.8955L25.6672 24.9754L25.609 25.0549L25.55 25.1339L25.4901 25.2123L25.4293 25.2902L25.3677 25.3674L25.3053 25.4443L25.242 25.5204L25.1779 25.5961L25.113 25.6712L25.0472 25.7457L24.9807 25.8195L24.9133 25.8928L24.8452 25.9655L24.7763 26.0375L24.7065 26.1089L24.6361 26.1797L24.5647 26.2498L24.4927 26.3193L24.4198 26.3881L24.3463 26.4562L24.272 26.5237L24.1968 26.5904L24.121 26.6565L24.0445 26.7219L23.9673 26.7865L23.8892 26.8505L23.8106 26.9137L23.7311 26.9762L23.651 27.0379L23.5703 27.0989L23.4888 27.1591L23.4066 27.2186L23.3239 27.2774L23.2404 27.3353L23.1563 27.3925L23.0715 27.4488L22.9861 27.5044L22.9 27.5592L22.8134 27.6131L22.7261 27.6662L22.6383 27.7186L22.5498 27.7701L22.4608 27.8206L22.3711 27.8704L22.2809 27.9194L22.1902 27.9675L22.0988 28.0148L22.0069 28.0611L21.9146 28.1066L21.8216 28.1512L21.7281 28.1949L21.6342 28.2378L21.5397 28.2797L21.4448 28.3207L21.3493 28.3608L21.2534 28.4L21.157 28.4384L21.0601 28.4757L20.9629 28.5122L20.8651 28.5477L20.767 28.5823L20.6684 28.6159L20.5694 28.6486L20.47 28.6803L20.3702 28.7111L20.2701 28.7409L20.1696 28.7697L20.0687 28.7976L19.9674 28.8245L19.8658 28.8504L19.7639 28.8753L19.6617 28.8993L19.559 28.9222L19.4562 28.9442L19.353 28.9651L19.2496 28.9851L19.1459 29.0041L19.0419 29.022L18.9377 29.0389L18.8333 29.0548L18.7286 29.0697L18.6236 29.0836L18.5185 29.0965L18.4132 29.1083L18.3077 29.1191L18.202 29.1289L18.0962 29.1377L17.9902 29.1453L17.884 29.152L17.7777 29.1576L17.6713 29.1622L17.5647 29.1657L17.4581 29.1682L17.3514 29.1696L17.2445 29.17L17.1376 29.1694L17.0307 29.1676L16.9237 29.1649L16.8166 29.1611L16.7096 29.1562L16.6025 29.1502L16.4954 29.1433L16.3883 29.1352L16.2812 29.1261L16.1742 29.1159L16.0672 29.1047L15.9602 29.0924L15.8533 29.0791L15.7464 29.0647L15.6397 29.0492L15.5331 29.0327L15.4265 29.0151L15.32 28.9964L15.2137 28.9768L15.1075 28.956L15.0015 28.9341L14.8956 28.9113L14.7899 28.8874L14.6844 28.8624L14.579 28.8363L14.4739 28.8092L14.369 28.7811L14.2642 28.7519L14.1598 28.7217L14.0556 28.6904L13.9516 28.6581L13.8479 28.6246L13.7446 28.5902L13.6414 28.5548L13.5386 28.5183L13.4361 28.4808L13.3339 28.4422L13.232 28.4026L13.1305 28.362L13.0293 28.3203L12.9286 28.2777L12.8282 28.2341L12.7282 28.1893L12.6285 28.1436L12.5293 28.097L12.4305 28.0492L12.3322 28.0005L12.2342 27.9508L12.1367 27.9001L12.0397 27.8484L11.9432 27.7957L11.8471 27.7421L11.7515 27.6874L11.6565 27.6318L11.5619 27.5752L11.4679 27.5176L11.3744 27.4592L11.2814 27.3997L11.1891 27.3393L11.0973 27.2779L11.006 27.2156L10.9153 27.1524L10.8253 27.0883L10.7358 27.0231L10.6469 26.9572L10.5587 26.8902L10.4711 26.8224L10.3842 26.7537L10.2979 26.684L10.2123 26.6135L10.1273 26.542L10.043 26.4698L9.95946 26.3966L9.87655 26.3226L9.79436 26.2477L9.71298 26.172L9.63223 26.0954L9.55221 26.018L9.47299 25.9397L9.39457 25.8607L9.31687 25.7807L9.2399 25.7L9.16372 25.6185L9.08843 25.5362L9.01386 25.4531L8.94009 25.3692L8.86721 25.2845L8.79504 25.1991L8.72384 25.1129L8.65336 25.026L8.58384 24.9383L8.51512 24.8499L8.44729 24.7607L8.38034 24.6708L8.31419 24.5803L8.249 24.489L8.18477 24.397L8.12135 24.3043L8.05888 24.211L7.99735 24.117L7.93674 24.0223L7.87706 23.927L7.81833 23.831L7.76055 23.7344L7.70374 23.6372L7.64788 23.5393L7.593 23.4409L7.5391 23.3418L7.48618 23.2422L7.43426 23.142L7.38333 23.0412L7.33342 22.9398L7.28452 22.8379L7.23663 22.7355L7.18977 22.6325L7.14394 22.5291L7.09915 22.4251L7.0554 22.3205L7.0127 22.2155L6.97106 22.1101L6.93047 22.0041L6.89095 21.8977L6.85249 21.7909L6.81512 21.6835L6.77883 21.5758L6.74362 21.4677L6.7095 21.3591L6.67648 21.2502L6.64456 21.1408L6.61375 21.0312L6.58404 20.9211L6.55545 20.8106L6.52798 20.6998L6.50163 20.5887L6.47641 20.4773L6.45231 20.3655L6.42936 20.2535L6.40754 20.1411L6.38686 20.0285L6.36733 19.9156L6.34895 19.8024L6.33172 19.6891L6.31564 19.5754L6.30073 19.4616L6.28698 19.3475L6.27439 19.2332L6.26296 19.1188L6.25271 19.0041L6.24363 18.8893L6.23572 18.7744L6.22899 18.6593L6.22344 18.544L6.21907 18.4287L6.21589 18.3133L6.21388 18.1977L6.21306 18.082L6.21344 17.9663L6.215 17.8505L6.21775 17.7348L6.22169 17.6189L6.22683 17.5029L6.23317 17.3871L6.24069 17.2711L6.24941 17.1553L6.25932 17.0393L6.27043 16.9235L6.28275 16.8077L6.29625 16.692L6.31096 16.5763L6.32686 16.4607L6.34395 16.3451L6.36225 16.2297L6.38174 16.1144L6.40242 15.9993L6.42431 15.8842L6.44738 15.7693L6.47165 15.6547L6.49711 15.5401L6.52376 15.4257L6.5516 15.3116L6.58063 15.1976L6.61085 15.0839L6.64225 14.9704L6.67484 14.8572L6.70861 14.7442L6.74355 14.6314L6.77968 14.5189L6.81699 14.4068L6.85546 14.295L6.89511 14.1835L6.93592 14.0722L6.9779 13.9613L7.02103 13.8509L7.06534 13.7407L7.11079 13.6309L7.1574 13.5215L7.20516 13.4125L7.25407 13.3039L7.30411 13.1958L7.3553 13.088L7.40762 12.9807L7.46108 12.8739L7.51566 12.7675L7.57136 12.6617L7.62818 12.5562L7.68612 12.4513L7.74517 12.3469L7.80531 12.243L7.86656 12.1398L7.92891 12.037L7.99235 11.9347L8.05688 11.8331L8.12247 11.7319L8.18918 11.6315L8.25685 11.5316L8.32573 11.4323L8.39557 11.3336L8.46645 11.2355L8.53846 11.1382L8.61142 11.0414L8.68551 10.9453L8.76056 10.8499L8.83666 10.7552L8.91371 10.6613L8.99181 10.5679L9.07095 10.4753L9.15105 10.3834L9.23212 10.2923L9.31423 10.202L9.39722 10.1123L9.48125 10.0235L9.56624 9.93536L9.65212 9.84813L9.73896 9.76161L9.82676 9.67589L9.91552 9.59106L10.0052 9.50695L10.0957 9.4238L10.1872 9.34137L10.2795 9.2599L10.3727 9.17924L10.4669 9.09946L10.5619 9.02056L10.6577 8.94254L10.7544 8.8654L10.852 8.78923L10.9504 8.71394L11.0495 8.63961L11.1496 8.56616L11.2504 8.49368L11.352 8.42215L11.4545 8.35159L11.5577 8.28199L11.6616 8.21344L11.7664 8.14576L11.8718 8.07913L11.9781 8.01349L12.085 7.94886L12.1927 7.88524L12.301 7.82265L12.4102 7.76108L12.5199 7.70055L12.6304 7.64108L12.7415 7.58266L12.8533 7.5253L12.9657 7.469L13.0787 7.41378L13.1924 7.35964L13.3068 7.30659L13.4217 7.25463L13.5372 7.20377L13.6533 7.15403L13.77 7.1054L13.8872 7.05788L14.0049 7.01149L14.1233 6.96624L14.2421 6.92212L14.3615 6.87915L14.4814 6.83733L14.6017 6.79666L14.7226 6.75715L14.8438 6.71882L14.9656 6.68165L15.0878 6.64565L15.2105 6.61084L15.3335 6.57722L15.457 6.54478L15.5808 6.51354L15.7051 6.48351L15.8297 6.45468L15.9547 6.42705L16.0801 6.40064L16.2057 6.37544L16.3318 6.35148L16.458 6.32873L16.5847 6.30721L16.7116 6.28692L16.8388 6.26787L16.9662 6.25006L17.0938 6.23349L17.1414 6.22778ZM17.1953 10.7734L17.1586 7.675L17.054 7.68963L16.9415 7.70649L16.8289 7.72447L16.717 7.74348L16.605 7.76366L16.4936 7.78487L16.3824 7.80717L16.2715 7.83051L16.161 7.85495L16.0506 7.88049L15.9406 7.90707L15.8311 7.9347L15.7216 7.96343L15.6165 7.99213L15.5045 8.02396L15.3963 8.0558L15.2887 8.08867L15.1815 8.12251L15.0746 8.15747L14.9682 8.19347L14.8622 8.23044L14.7567 8.26836L14.6517 8.30741L14.5471 8.34734L14.443 8.3884L14.3396 8.43033L14.2363 8.47339L14.1337 8.51733L14.0316 8.56223L13.9303 8.6081L13.8292 8.655L13.7286 8.70287L13.629 8.75154L13.5294 8.80134L13.431 8.85193L13.3327 8.90365L13.2353 8.95601L13.1382 9.00965L13.0419 9.06386L12.9464 9.1191L12.8513 9.17531L12.7569 9.23232L12.663 9.29037L12.5701 9.34907L12.4775 9.4088L12.3859 9.46934L12.2949 9.53068L12.2045 9.59298L12.1147 9.65617L12.0259 9.71991L11.9377 9.78478L11.8501 9.85037L11.7633 9.91676L11.6774 9.98388L11.592 10.052L11.5076 10.1207L11.4238 10.1902L11.3408 10.2607L11.2587 10.3316L11.1773 10.4036L11.0966 10.4762L11.0168 10.5495L10.9379 10.6235L10.8596 10.6984L10.7824 10.7738L10.7059 10.8499L10.6301 10.9269L10.5553 11.0044L10.4813 11.0828L10.4082 11.1617L10.3359 11.2412L10.2645 11.3215L10.1938 11.4025L10.1244 11.4839L10.0556 11.566L9.98768 11.6489L9.92073 11.7322L9.85474 11.8161L9.78947 11.9007L9.72524 11.9858L9.6619 12.0715L9.59952 12.1578L9.53802 12.2446L9.47756 12.3319L9.41798 12.4198L9.35929 12.5082L9.30156 12.5971L9.24487 12.6864L9.18914 12.7763L9.1343 12.8669L9.08041 12.9576L9.02757 13.0489L8.97561 13.1408L8.92478 13.2328L8.87482 13.3255L8.82575 13.4187L8.77788 13.512L8.7309 13.606L8.68495 13.7003L8.63997 13.7948L8.59603 13.8899L8.55305 13.9852L8.51112 14.081L8.47014 14.177L8.43029 14.2734L8.3914 14.3701L8.35347 14.4672L8.31659 14.5646L8.28083 14.6621L8.24595 14.7601L8.21227 14.8582L8.17948 14.9567L8.14781 15.0554L8.1171 15.1543L8.08751 15.2534L8.05888 15.3528L8.03138 15.4523L8.00485 15.5521L7.97938 15.652L7.95497 15.7522L7.9316 15.8525L7.90927 15.9529L7.88798 16.0535L7.86777 16.1542L7.84858 16.255L7.83044 16.356L7.81337 16.457L7.79733 16.5582L7.78236 16.6593L7.76841 16.7607L7.75553 16.862L7.7437 16.9635L7.73291 17.0649L7.72318 17.1664L7.7145 17.2679L7.70686 17.3694L7.70027 17.471L7.69472 17.5725L7.69023 17.6739L7.68678 17.7753L7.68436 17.8767L7.683 17.978L7.68267 18.0794L7.68339 18.1806L7.68514 18.2817L7.68793 18.3827L7.69175 18.4836L7.69661 18.5845L7.70249 18.6852L7.70941 18.7856L7.71735 18.8861L7.72632 18.9863L7.73631 19.0864L7.74732 19.1863L7.75934 19.2861L7.77238 19.3856L7.78643 19.4849L7.8015 19.5841L7.81756 19.6829L7.83463 19.7816L7.8527 19.8801L7.87176 19.9781L7.89182 20.0761L7.91286 20.1737L7.9349 20.2711L7.9579 20.368L7.98191 20.4648L8.00688 20.5613L8.03282 20.6574L8.05968 20.7532L8.08759 20.8487L8.11637 20.9438L8.1462 21.0385L8.17691 21.133L8.20858 21.227L8.24122 21.3205L8.27473 21.4138L8.30921 21.5066L8.34465 21.5991L8.38098 21.6911L8.41818 21.7826L8.45635 21.8738L8.4954 21.9645L8.53541 22.0547L8.57622 22.1445L8.618 22.2337L8.66066 22.3226L8.70411 22.4109L8.74854 22.4987L8.79376 22.5861L8.83986 22.673L8.88685 22.7593L8.93464 22.8451L8.98331 22.9303L9.03278 23.015L9.08314 23.0991L9.1343 23.1827L9.18625 23.2657L9.23902 23.3481L9.29266 23.4301L9.34694 23.5112L9.40219 23.592L9.45808 23.672L9.51484 23.7514L9.57234 23.8303L9.63063 23.9084L9.68964 23.986L9.74946 24.063L9.80992 24.1392L9.87118 24.2148L9.93316 24.2898L9.99586 24.3641L10.0593 24.4376L10.1234 24.5107L10.1882 24.5829L10.2537 24.6545L10.3199 24.7253L10.3868 24.7954L10.4543 24.8649L10.5225 24.9336L10.5913 25.0016L10.6608 25.0688L10.731 25.1354L10.8016 25.2012L10.8731 25.2663L10.945 25.3305L11.0176 25.394L11.0908 25.4568L11.1645 25.5188L11.2389 25.58L11.3137 25.6404L11.3892 25.7L11.4652 25.7589L11.5418 25.817L11.6189 25.8743L11.6965 25.9307L11.7746 25.9864L11.8532 26.0412L11.9324 26.0953L12.0121 26.1485L12.0922 26.2009L12.1727 26.2524L12.2538 26.3032L12.3353 26.3531L12.4172 26.4021L12.4997 26.4503L12.5824 26.4976L12.6657 26.5441L12.7493 26.5898L12.8334 26.6346L12.9178 26.6785L13.0026 26.7215L13.0878 26.7638L13.1734 26.805L13.2593 26.8455L13.3455 26.8851L13.4322 26.9238L13.519 26.9616L13.6063 26.9985L13.6938 27.0345L13.7817 27.0697L13.8697 27.1039L13.9582 27.1372L14.0469 27.1697L14.1358 27.2013L14.225 27.2319L14.3144 27.2618L14.4041 27.2906L14.494 27.3185L14.5841 27.3456L14.6744 27.3717L14.7648 27.397L14.8555 27.4213L14.9464 27.4447L15.0374 27.4672L15.1285 27.4888L15.2199 27.5095L15.3113 27.5293L15.4029 27.5481L15.4946 27.566L15.5865 27.583L15.6783 27.5991L15.7703 27.6143L15.8624 27.6285L15.9545 27.6419L16.0467 27.6543L16.1389 27.6659L16.2312 27.6765L16.3235 27.6862L16.4159 27.6949L16.5082 27.7028L16.6006 27.7097L16.693 27.7158L16.7853 27.7208L16.8776 27.7251L16.9699 27.7284L17.0621 27.7308L17.1543 27.7322L17.2464 27.7328L17.3385 27.7324L17.4304 27.7312L17.5223 27.7291L17.614 27.726L17.7058 27.7221L17.7973 27.7172L17.8887 27.7115L17.9799 27.7049L18.0711 27.6973L18.162 27.6889L18.2529 27.6796L18.3435 27.6694L18.434 27.6584L18.5243 27.6464L18.6143 27.6337L18.7042 27.6199L18.7939 27.6054L18.8832 27.59L18.9724 27.5736L19.0613 27.5564L19.15 27.5385L19.2385 27.5196L19.3266 27.4998L19.4145 27.4793L19.502 27.4578L19.5893 27.4356L19.6763 27.4125L19.763 27.3885L19.8494 27.3638L19.9354 27.3382L20.0211 27.3118L20.1064 27.2845L20.1914 27.2565L20.276 27.2276L20.3603 27.1979L20.4442 27.1675L20.5276 27.1362L20.6107 27.1041L20.6934 27.0713L20.7757 27.0376L20.8576 27.0032L20.939 26.968L21.0201 26.9321L21.1006 26.8953L21.1807 26.8578L21.2604 26.8196L21.3395 26.7807L21.4184 26.7408L21.4966 26.7004L21.5744 26.6591L21.6516 26.6173L21.7284 26.5746L21.8047 26.5312L21.8804 26.4871L21.9557 26.4423L22.0304 26.3968L22.1045 26.3507L22.1783 26.3037L22.2513 26.2563L22.3238 26.208L22.3959 26.159L22.4673 26.1095L22.538 26.0593L22.6084 26.0084L22.678 25.957L22.7471 25.9048L22.8157 25.8519L22.8833 25.7986L22.9508 25.7445L23.0175 25.6898L23.0833 25.6346L23.1489 25.5786L23.2136 25.5222L23.2777 25.4653L23.3413 25.4075L23.4041 25.3494L23.4663 25.2906L23.5279 25.2313L23.5886 25.1715L23.6488 25.111L23.7084 25.0501L23.7673 24.9886L23.8253 24.9266L23.8828 24.8641L23.9397 24.801L23.9956 24.7376L24.0511 24.6735L24.1057 24.609L24.1596 24.5441L24.2129 24.4785L24.2654 24.4127L24.3172 24.3462L24.3683 24.2794L24.4186 24.2121L24.4682 24.1444L24.5169 24.0764L24.5651 24.0077L24.6124 23.9388L24.659 23.8695L24.7049 23.7996L24.7498 23.7296L24.7943 23.6591L24.8378 23.5881L24.8806 23.5169L24.9226 23.4453L24.9639 23.3732L25.0043 23.3011L25.044 23.2283L25.0829 23.1554L25.1209 23.0822L25.1584 23.0085L25.1948 22.9349L25.2306 22.8605L25.2654 22.7863L25.2997 22.7113L25.3329 22.6365L25.3656 22.561L25.3973 22.4857L25.4282 22.41L25.4583 22.334L25.4877 22.2577L25.5161 22.1815L25.5439 22.1047L25.5707 22.0279L25.5967 21.9509L25.622 21.8737L25.6464 21.7963L25.6701 21.7187L25.6929 21.6411L25.7148 21.5632L25.7359 21.4852L25.7563 21.4071L25.7758 21.3288L25.7945 21.2505L25.8123 21.1719L25.8293 21.0933L25.8456 21.0146L25.8609 20.936L25.8755 20.8572L25.8892 20.778L25.9022 20.6992L25.9143 20.6201L25.9255 20.541L25.9359 20.462L25.9455 20.3829L25.9543 20.3035L25.9623 20.2247L25.9695 20.1452L25.9758 20.0661L25.9813 19.9871L25.986 19.9079L25.9899 19.8288L25.9929 19.7498L25.9952 19.6706L25.9965 19.5919L25.9972 19.5128L25.9969 19.434L25.996 19.3552L25.9941 19.2767L25.9915 19.198L25.988 19.1195L25.9838 19.0413L25.9787 18.9629L25.9729 18.8847L25.9663 18.807L25.9588 18.7289L25.9506 18.6514L25.9415 18.5737L25.9317 18.4964L25.9212 18.4192L25.9098 18.3421L25.8976 18.2652L25.8847 18.1887L25.871 18.1123L25.8564 18.0361L25.8411 17.9598L25.8251 17.8841L25.8083 17.8087L25.7908 17.7333L25.7724 17.6581L25.7534 17.5835L25.7335 17.5087L25.713 17.4346L25.6917 17.3605L25.6696 17.2869L25.6468 17.2133L25.6233 17.1401L25.5991 17.0674L25.5741 16.9949L25.5483 16.9225L25.522 16.8507L25.4948 16.7791L25.467 16.708L25.4385 16.6371L25.4092 16.5664L25.3793 16.4964L25.3486 16.4265L25.3173 16.3571L25.2853 16.2882L25.2526 16.2194L25.2192 16.151L25.1852 16.0832L25.1504 16.0156L25.1152 15.9487L25.0792 15.8821L25.0424 15.8157L25.0052 15.75L24.9672 15.6846L24.9286 15.6197L24.8894 15.5551L24.8497 15.4912L24.8091 15.4274L24.7681 15.3644L24.7264 15.3018L24.6842 15.2396L24.6412 15.1778L24.5977 15.1166L24.5538 15.056L24.5091 14.9956L24.4639 14.936L24.418 14.8767L24.3719 14.8181L24.3249 14.7598L24.2774 14.7022L24.2294 14.645L24.1809 14.5883L24.1319 14.5323L24.0822 14.4767L24.0321 14.4218L23.9814 14.3672L23.9305 14.3135L23.8787 14.26L23.8266 14.2074L23.7739 14.155L23.7208 14.1034L23.6673 14.0524L23.6132 14.0019L23.5586 13.952L23.5036 13.9027L23.4482 13.8541L23.3922 13.8058L23.3361 13.7585L23.2793 13.7114L23.2221 13.6652L23.1645 13.6195L23.1065 13.5743L23.0481 13.5299L22.9895 13.4862L22.9302 13.4429L22.8704 13.4001L22.8107 13.3584L22.7502 13.3169L22.6897 13.2764L22.6287 13.2363L22.5673 13.1969L22.5054 13.1581L22.4435 13.1201L22.381 13.0825L22.3184 13.0458L22.2552 13.0096L22.1921 12.9742L22.1284 12.9394L22.0644 12.9052L22.0002 12.8717L21.9358 12.8389L21.871 12.8067L21.8059 12.7752L21.7407 12.7444L21.6754 12.7143L21.6093 12.6848L21.5436 12.6561L21.4773 12.628L21.4108 12.6005L21.3442 12.5738L21.2774 12.5478L21.2104 12.5225L21.143 12.4977L21.0757 12.4738L21.008 12.4505L20.9402 12.4279L20.8724 12.406L20.8044 12.3848L20.7363 12.3643L20.6676 12.3444L20.5993 12.3253L20.5307 12.3069L20.462 12.2891L20.3932 12.2721L20.3241 12.2557L20.2551 12.2401L20.1861 12.2251L20.1169 12.2109L20.0474 12.1972L19.9784 12.1845L19.9089 12.1723L19.8395 12.1608L19.7698 12.15L19.7006 12.14L19.6307 12.1305L19.5614 12.122L19.4918 12.1139L19.4222 12.1066L19.3526 12.1001L19.283 12.0941L19.2136 12.0889L19.1439 12.0844L19.0744 12.0806L19.0051 12.0775L18.9354 12.075L18.8662 12.0732L18.7969 12.0722L18.7277 12.0718L18.6804 12.0719L18.7162 15.0991L18.7376 15.0992L18.7774 15.0998L18.8173 15.1007L18.8572 15.102L18.8971 15.1039L18.9371 15.106L18.9772 15.1086L19.0172 15.1117L19.0573 15.1151L19.0975 15.119L19.1377 15.1232L19.1779 15.1278L19.2181 15.133L19.2583 15.1385L19.2985 15.1444L19.3388 15.1509L19.379 15.1577L19.4192 15.1649L19.4595 15.1726L19.4996 15.1806L19.5398 15.1892L19.58 15.1981L19.6201 15.2075L19.6602 15.2173L19.7002 15.2274L19.7403 15.2381L19.7802 15.2492L19.8201 15.2606L19.86 15.2726L19.8997 15.2849L19.9394 15.2978L19.9791 15.311L20.0186 15.3246L20.0582 15.3387L20.0975 15.3532L20.1368 15.3681L20.176 15.3834L20.2152 15.3992L20.2541 15.4154L20.293 15.432L20.3318 15.4491L20.3705 15.4665L20.4091 15.4844L20.4475 15.5028L20.4857 15.5215L20.5239 15.5406L20.5618 15.5603L20.5997 15.5802L20.6373 15.6007L20.6749 15.6215L20.7122 15.6428L20.7494 15.6644L20.7864 15.6865L20.8233 15.709L20.8599 15.7319L20.8964 15.7553L20.9327 15.7789L20.9687 15.8031L21.0047 15.8277L21.0403 15.8526L21.0758 15.878L21.1111 15.9037L21.1461 15.9298L21.1809 15.9564L21.2155 15.9833L21.2499 16.0107L21.2839 16.0384L21.3178 16.0665L21.3514 16.095L21.3848 16.1239L21.4179 16.1531L21.4508 16.1828L21.4833 16.2129L21.5157 16.2433L21.5477 16.2741L21.5795 16.3053L21.6109 16.3368L21.6421 16.3687L21.6731 16.4009L21.7036 16.4335L21.7339 16.4666L21.7639 16.4999L21.7937 16.5336L21.823 16.5677L21.852 16.6021L21.8808 16.6368L21.9092 16.6719L21.9373 16.7074L21.965 16.7431L21.9924 16.7793L22.0195 16.8157L22.0462 16.8525L22.0725 16.8896L22.0986 16.927L22.1243 16.9648L22.1495 17.0028L22.1744 17.0412L22.1991 17.0799L22.2232 17.1189L22.247 17.1582L22.2704 17.1978L22.2934 17.2376L22.3161 17.2778L22.3383 17.3183L22.3602 17.359L22.3817 17.4001L22.4027 17.4414L22.4234 17.4829L22.4436 17.5248L22.4634 17.5669L22.4828 17.6093L22.5018 17.6519L22.5204 17.6948L22.5386 17.738L22.5563 17.7813L22.5735 17.825L22.5904 17.8688L22.6068 17.9129L22.6227 17.9573L22.6382 18.0018L22.6533 18.0466L22.6679 18.0916L22.682 18.1368L22.6957 18.1822L22.7089 18.2278L22.7217 18.2737L22.734 18.3196L22.7459 18.3658L22.7572 18.4122L22.7681 18.4588L22.7785 18.5055L22.7885 18.5525L22.7979 18.5995L22.8068 18.6467L22.8153 18.6941L22.8234 18.7417L22.8309 18.7893L22.8379 18.8372L22.8444 18.8851L22.8504 18.9333L22.8559 18.9815L22.861 19.0299L22.8655 19.0783L22.8695 19.1269L22.873 19.1756L22.876 19.2244L22.8785 19.2733L22.8804 19.3223L22.8819 19.3714L22.8828 19.4205L22.8833 19.4698L22.8831 19.519L22.8825 19.5684L22.8814 19.6179L22.8797 19.6673L22.8776 19.7169L22.8748 19.7664L22.8716 19.8161L22.8679 19.8657L22.8635 19.9154L22.8587 19.9651L22.8534 20.0148L22.8475 20.0646L22.8411 20.1143L22.8342 20.1641L22.8267 20.2139L22.8187 20.2636L22.8101 20.3133L22.8011 20.363L22.7915 20.4127L22.7813 20.4623L22.7706 20.512L22.7594 20.5615L22.7477 20.6111L22.7353 20.6606L22.7225 20.71L22.7092 20.7593L22.6952 20.8087L22.6808 20.8578L22.6658 20.907L22.6503 20.956L22.6343 21.0049L22.6177 21.0538L22.6006 21.1026L22.5829 21.1512L22.5647 21.1998L22.546 21.2481L22.5268 21.2965L22.507 21.3446L22.4867 21.3926L22.4658 21.4405L22.4444 21.4883L22.4225 21.5358L22.4001 21.5832L22.3771 21.6305L22.3537 21.6776L22.3296 21.7245L22.3051 21.7712L22.28 21.8178L22.2544 21.8641L22.2283 21.9103L22.2017 21.9562L22.1745 22.002L22.1469 22.0475L22.1187 22.0929L22.0901 22.1379L22.0609 22.1827L22.0312 22.2274L22.001 22.2717L21.9703 22.3159L21.9391 22.3598L21.9074 22.4034L21.8752 22.4468L21.8425 22.4898L21.8093 22.5327L21.7756 22.5752L21.7415 22.6175L21.7068 22.6594L21.6717 22.7011L21.6361 22.7425L21.5999 22.7836L21.5634 22.8243L21.5263 22.8648L21.4888 22.9049L21.4509 22.9446L21.4124 22.9842L21.3735 23.0233L21.3341 23.062L21.2944 23.1005L21.254 23.1386L21.2133 23.1763L21.1722 23.2137L21.1305 23.2507L21.0885 23.2873L21.046 23.3236L21.0031 23.3594L20.9598 23.395L20.916 23.4301L20.8718 23.4647L20.8272 23.499L20.7822 23.5329L20.7368 23.5665L20.691 23.5995L20.6447 23.6321L20.5981 23.6644L20.5511 23.6962L20.5037 23.7276L20.4559 23.7585L20.4077 23.7891L20.3591 23.8191L20.3102 23.8487L20.2609 23.8778L20.2112 23.9065L20.1612 23.9347L20.1108 23.9625L20.0601 23.9898L20.009 24.0166L19.9576 24.043L19.9058 24.0688L19.8538 24.0942L19.8014 24.1191L19.7486 24.1435L19.6956 24.1674L19.6422 24.1907L19.5885 24.2136L19.5346 24.236L19.4803 24.2578L19.4257 24.2791L19.3708 24.3L19.3157 24.3203L19.2603 24.3401L19.2046 24.3593L19.1487 24.378L19.0925 24.3962L19.036 24.4138L18.9793 24.4308L18.9223 24.4474L18.8651 24.4634L18.8077 24.4789L18.7501 24.4937L18.6922 24.5081L18.634 24.5218L18.5758 24.535L18.5172 24.5476L18.4585 24.5597L18.3996 24.5712L18.3405 24.5821L18.2812 24.5924L18.2217 24.6022L18.1622 24.6113L18.1024 24.6199L18.0425 24.6279L17.9823 24.6354L17.9221 24.6422L17.8617 24.6484L17.8012 24.6541L17.7406 24.659L17.6798 24.6635L17.6189 24.6673L17.5579 24.6706L17.4968 24.6732L17.4356 24.6752L17.3743 24.6766L17.313 24.6774L17.2515 24.6776L17.19 24.6772L17.1285 24.6762L17.0668 24.6745L17.0051 24.6723L16.9434 24.6694L16.8816 24.6658L16.8197 24.6618L16.7579 24.657L16.6961 24.6517L16.6342 24.6456L16.5724 24.6391L16.5105 24.6318L16.4487 24.6239L16.3868 24.6154L16.3249 24.6064L16.2631 24.5966L16.2014 24.5862L16.1396 24.5752L16.078 24.5636L16.0163 24.5514L15.9547 24.5385L15.8932 24.525L15.8318 24.5109L15.7705 24.4961L15.7091 24.4808L15.648 24.4648L15.5869 24.4481L15.5259 24.4308L15.4651 24.413L15.4044 24.3944L15.3437 24.3753L15.2833 24.3555L15.2229 24.3352L15.1628 24.3142L15.1027 24.2925L15.0428 24.2702L14.9832 24.2474L14.9236 24.2239L14.8642 24.1997L14.8051 24.1751L14.7461 24.1497L14.6874 24.1237L14.6288 24.0972L14.5705 24.07L14.5122 24.0422L14.4544 24.0138L14.3967 23.9848L14.3393 23.9552L14.2821 23.925L14.2252 23.8942L14.1685 23.8627L14.1121 23.8307L14.0559 23.7981L14.0001 23.7649L13.9446 23.7312L13.8893 23.6968L13.8343 23.6618L13.7796 23.6263L13.7252 23.5901L13.6712 23.5534L13.6176 23.5161L13.5642 23.4783L13.5111 23.4399L13.4584 23.4008L13.406 23.3613L13.3541 23.3212L13.3024 23.2804L13.2512 23.2392L13.2003 23.1975L13.1498 23.1551L13.0997 23.1122L13.0499 23.0688L13.0006 23.0248L12.9517 22.9803L12.9032 22.9353L12.8551 22.8897L12.8075 22.8436L12.7602 22.797L12.7134 22.7499L12.6671 22.7023L12.6211 22.6541L12.5757 22.6055L12.5307 22.5562L12.4862 22.5066L12.4421 22.4565L12.3985 22.4058L12.3554 22.3547L12.3127 22.3031L12.2707 22.251L12.229 22.1985L12.1879 22.1455L12.1473 22.092L12.1072 22.038L12.0676 21.9837L12.0286 21.9288L11.99 21.8735L11.952 21.8178L11.9146 21.7616L11.8777 21.705L11.8414 21.648L11.8055 21.5906L11.7703 21.5328L11.7356 21.4745L11.7015 21.4159L11.668 21.3568L11.635 21.2974L11.6026 21.2375L11.5709 21.1773L11.5397 21.1167L11.5091 21.0558L11.4791 20.9945L11.4497 20.9328L11.421 20.8708L11.3928 20.8084L11.3653 20.7457L11.3384 20.6826L11.3121 20.6193L11.2864 20.5555L11.2614 20.4915L11.237 20.4271L11.2134 20.3625L11.1903 20.2976L11.1678 20.2324L11.146 20.1669L11.1249 20.101L11.1045 20.035L11.0847 19.9687L11.0655 19.902L11.0471 19.8351L11.0293 19.768L11.0122 19.7007L10.9958 19.6331L10.9801 19.5653L10.965 19.4973L10.9507 19.429L10.937 19.3605L10.9241 19.2919L10.9118 19.223L10.9002 19.154L10.8894 19.0848L10.8792 19.0154L10.8698 18.9458L10.8611 18.8761L10.8531 18.8062L10.8458 18.7362L10.8392 18.666L10.8334 18.5957L10.8282 18.5253L10.8238 18.4547L10.8201 18.3841L10.8172 18.3134L10.8149 18.2425L10.8135 18.1715L10.8128 18.1006L10.8127 18.0294L10.8134 17.9582L10.8149 17.887L10.8171 17.8157L10.8201 17.7444L10.8238 17.673L10.8282 17.6017L10.8333 17.5302L10.8392 17.4588L10.8459 17.3873L10.8533 17.3159L10.8614 17.2444L10.8703 17.173L10.88 17.1016L10.8904 17.0303L10.9015 16.9589L10.9135 16.8876L10.9261 16.8163L10.9395 16.7451L10.9536 16.674L10.9686 16.603L10.9842 16.532L11.0006 16.4611L11.0177 16.3904L11.0356 16.3197L11.0543 16.2491L11.0737 16.1787L11.0938 16.1084L11.1147 16.0382L11.1363 15.9682L11.1587 15.8982L11.1818 15.8285L11.2057 15.759L11.2303 15.6895L11.2556 15.6203L11.2817 15.5513L11.3085 15.4825L11.3361 15.4139L11.3644 15.3454L11.3935 15.2772L11.4232 15.2092L11.4537 15.1415L11.4849 15.074L11.5169 15.0067L11.5496 14.9397L11.583 14.8729L11.6171 14.8065L11.652 14.7403L11.6875 14.6744L11.7238 14.6088L11.7608 14.5435L11.7985 14.4784L11.8369 14.4138L11.876 14.3494L11.9158 14.2854L11.9563 14.2217L11.9975 14.1583L12.0394 14.0953L12.082 14.0326L12.1253 13.9703L12.1692 13.9084L12.2139 13.8469L12.2592 13.7857L12.3051 13.725L12.3518 13.6647L12.3991 13.6047L12.4471 13.5452L12.4958 13.486L12.545 13.4274L12.595 13.3691L12.6456 13.3113L12.6968 13.254L12.7487 13.197L12.8012 13.1407L12.8544 13.0847L12.9082 13.0292L12.9626 12.9742L13.0176 12.9197L13.0732 12.8657L13.1294 12.8122L13.1863 12.7592L13.2437 12.7066L13.3016 12.6547L13.3603 12.6032L13.4195 12.5524L13.4792 12.5019L13.5396 12.4521L13.6005 12.4029L13.662 12.3542L13.724 12.3061L13.7866 12.2585L13.8497 12.2115L13.9134 12.1651L13.9776 12.1193L14.0423 12.0741L14.1076 12.0294L14.1734 11.9854L14.2396 11.942L14.3064 11.8993L14.3738 11.8571L14.4415 11.8156L14.5098 11.7747L14.5786 11.7344L14.6478 11.6948L14.7175 11.6559L14.7877 11.6175L14.8583 11.5799L14.9294 11.543L15.0009 11.5066L15.0728 11.471L15.1452 11.4361L15.218 11.4018L15.2912 11.3682L15.3648 11.3354L15.4388 11.3032L15.5133 11.2717L15.5881 11.2409L15.6633 11.2109L15.7389 11.1816L15.8148 11.1529L15.8911 11.125L15.9677 11.0979L16.0448 11.0715L16.1221 11.0458L16.1998 11.0209L16.2777 10.9967L16.3561 10.9733L16.4346 10.9506L16.5135 10.9287L16.5928 10.9075L16.6722 10.8871L16.752 10.8674L16.832 10.8486L16.9124 10.8305L16.9929 10.8132L17.0737 10.7967L17.1547 10.781L17.1953 10.7734ZM18.1911 16.595L17.2669 16.8158L17.2126 12.2377L17.1691 12.2475L17.1035 12.263L17.038 12.2791L16.973 12.2958L16.908 12.3131L16.8435 12.3311L16.7789 12.3498L16.715 12.3688L16.651 12.3887L16.5877 12.409L16.5243 12.4301L16.4613 12.4517L16.3985 12.474L16.3361 12.4967L16.2742 12.5201L16.2124 12.5441L16.1509 12.5687L16.0898 12.5937L16.0287 12.6196L15.9685 12.6457L15.9083 12.6726L15.8487 12.7L15.7891 12.7281L15.7301 12.7565L15.6712 12.7856L15.613 12.8152L15.555 12.8454L15.4975 12.8761L15.4403 12.9073L15.3834 12.939L15.327 12.9713L15.2712 13.004L15.2153 13.0375L15.1601 13.0712L15.1054 13.1056L15.0511 13.1404L14.997 13.1757L14.9435 13.2116L14.8905 13.2479L14.8378 13.2846L14.7857 13.3218L14.7338 13.3596L14.6825 13.3978L14.6316 13.4365L14.5812 13.4756L14.5313 13.5151L14.4819 13.5551L14.4329 13.5956L14.3843 13.6365L14.3363 13.6777L14.2888 13.7195L14.2417 13.7616L14.1951 13.8042L14.149 13.8472L14.1035 13.8906L14.0584 13.9343L14.0137 13.9786L13.9697 14.0231L13.9262 14.0681L13.8832 14.1133L13.8406 14.1592L13.7986 14.2051L13.7572 14.2515L13.7162 14.2984L13.6759 14.3453L13.6359 14.3929L13.5967 14.4405L13.5578 14.4888L13.5197 14.5371L13.4819 14.586L13.4448 14.6351L13.4082 14.6844L13.3721 14.7341L13.3367 14.784L13.3017 14.8344L13.2673 14.8849L13.2336 14.9358L13.2004 14.9868L13.1677 15.0381L13.1356 15.0898L13.1042 15.1416L13.0731 15.1939L13.0428 15.2461L13.013 15.2988L12.9837 15.3516L12.9552 15.4046L12.9271 15.4579L12.8997 15.5114L12.8727 15.5652L12.8465 15.6189L12.8208 15.6731L12.7957 15.7273L12.7712 15.7817L12.7473 15.8363L12.7239 15.8912L12.7012 15.946L12.6791 16.0012L12.6576 16.0564L12.6366 16.1119L12.6163 16.1673L12.5966 16.223L12.5774 16.2788L12.5589 16.3347L12.5409 16.3907L12.5236 16.4469L12.5069 16.5031L12.4908 16.5593L12.4753 16.6157L12.4603 16.6723L12.446 16.7288L12.4323 16.7854L12.4192 16.8421L12.4066 16.8989L12.3948 16.9557L12.3835 17.0125L12.3727 17.0693L12.3626 17.1263L12.3532 17.1832L12.3443 17.2401L12.3359 17.2972L12.3282 17.354L12.3212 17.4111L12.3147 17.468L12.3087 17.525L12.3034 17.5821L12.2987 17.6389L12.2946 17.6959L12.2911 17.7528L12.2881 17.8096L12.2858 17.8663L12.284 17.923L12.2829 17.9798L12.2823 18.0364L12.2824 18.0929L12.2829 18.1494L12.2841 18.2058L12.2859 18.2621L12.2882 18.3183L12.2911 18.3745L12.2946 18.4304L12.2987 18.4863L12.3034 18.5421L12.3086 18.5978L12.3144 18.6534L12.3207 18.7087L12.3276 18.7641L12.335 18.8191L12.3431 18.8742L12.3517 18.9289L12.3609 18.9836L12.3706 19.0382L12.3808 19.0925L12.3916 19.1467L12.403 19.2006L12.4149 19.2545L12.4273 19.308L12.4403 19.3615L12.4538 19.4146L12.4679 19.4678L12.4824 19.5204L12.4975 19.5731L12.5131 19.6254L12.5292 19.6776L12.5459 19.7295L12.5631 19.781L12.5808 19.8326L12.599 19.8837L12.6177 19.9346L12.6368 19.9853L12.6566 20.0358L12.6768 20.0859L12.6975 20.1358L12.7186 20.1853L12.7403 20.2347L12.7624 20.2838L12.785 20.3325L12.8081 20.381L12.8316 20.4291L12.8557 20.4771L12.8801 20.5246L12.9051 20.5718L12.9305 20.6188L12.9564 20.6654L12.9827 20.7117L13.0094 20.7577L13.0366 20.8033L13.0642 20.8487L13.0922 20.8936L13.1207 20.9382L13.1496 20.9826L13.1789 21.0265L13.2086 21.0702L13.2387 21.1133L13.2692 21.1562L13.3002 21.1987L13.3315 21.2408L13.3633 21.2827L13.3954 21.3241L13.4279 21.365L13.4607 21.4057L13.494 21.446L13.5275 21.4858L13.5616 21.5253L13.5959 21.5645L13.6306 21.6031L13.6658 21.6414L13.701 21.6792L13.7368 21.7168L13.7729 21.7538L13.8092 21.7905L13.846 21.8267L13.883 21.8626L13.9204 21.898L13.9581 21.933L13.9961 21.9675L14.0344 22.0017L14.073 22.0354L14.1119 22.0686L14.151 22.1015L14.1905 22.1339L14.2302 22.1659L14.2703 22.1974L14.3105 22.2284L14.3511 22.2591L14.3919 22.2893L14.4329 22.3191L14.4742 22.3483L14.5158 22.3772L14.5575 22.4056L14.5996 22.4335L14.6417 22.4609L14.6842 22.4879L14.727 22.5145L14.7698 22.5405L14.8129 22.5662L14.8562 22.5914L14.8996 22.616L14.9432 22.6402L14.9872 22.664L15.0313 22.6873L15.0755 22.71L15.1198 22.7323L15.1645 22.7542L15.209 22.7755L15.254 22.7965L15.299 22.8169L15.3441 22.8368L15.3894 22.8563L15.4349 22.8753L15.4804 22.8938L15.5261 22.9118L15.5719 22.9293L15.6179 22.9464L15.6638 22.963L15.71 22.9791L15.7561 22.9947L15.8024 23.0098L15.8488 23.0245L15.8953 23.0387L15.9418 23.0523L15.9884 23.0656L16.0352 23.0782L16.0819 23.0905L16.1287 23.1022L16.1755 23.1135L16.2223 23.1243L16.2692 23.1345L16.3162 23.1444L16.3632 23.1537L16.4102 23.1626L16.4572 23.1709L16.5042 23.1789L16.5513 23.1862L16.5984 23.1932L16.6453 23.1996L16.6923 23.2056L16.7393 23.2111L16.7864 23.2161L16.8334 23.2206L16.8804 23.2247L16.9273 23.2283L16.9741 23.2315L17.021 23.2341L17.0678 23.2363L17.1144 23.238L17.1612 23.2392L17.2078 23.24L17.2543 23.2404L17.3008 23.2402L17.3471 23.2396L17.3935 23.2385L17.4398 23.237L17.4858 23.2351L17.5319 23.2326L17.578 23.2297L17.6237 23.2263L17.6694 23.2226L17.715 23.2183L17.7605 23.2137L17.8059 23.2084L17.8511 23.2029L17.8963 23.1969L17.9412 23.1904L17.9859 23.1835L18.0308 23.1762L18.0753 23.1684L18.1196 23.1603L18.1639 23.1516L18.208 23.1425L18.2517 23.1331L18.2954 23.1232L18.339 23.1129L18.3824 23.1021L18.4255 23.0911L18.4685 23.0795L18.5112 23.0676L18.5539 23.0551L18.5963 23.0424L18.6383 23.0292L18.6805 23.0156L18.7222 23.0017L18.7637 22.9874L18.805 22.9726L18.8461 22.9575L18.887 22.9419L18.9277 22.926L18.968 22.9098L19.0082 22.8932L19.0481 22.8761L19.0879 22.8587L19.1272 22.841L19.1665 22.8228L19.2054 22.8044L19.2439 22.7856L19.2824 22.7664L19.3204 22.7469L19.3583 22.727L19.3959 22.7067L19.4332 22.6862L19.4702 22.6654L19.507 22.6441L19.5435 22.6225L19.5796 22.6007L19.6154 22.5784L19.651 22.5559L19.6863 22.5331L19.7213 22.51L19.756 22.4866L19.7904 22.4627L19.8244 22.4387L19.8581 22.4144L19.8916 22.3897L19.9247 22.3648L19.9575 22.3395L19.9899 22.314L20.0222 22.2882L20.0539 22.2622L20.0854 22.2359L20.1166 22.2093L20.1473 22.1824L20.1779 22.1553L20.208 22.1279L20.2379 22.1003L20.2672 22.0725L20.2964 22.0443L20.3252 22.016L20.3537 21.9874L20.3817 21.9586L20.4094 21.9295L20.4367 21.9003L20.4638 21.8708L20.4904 21.8412L20.5167 21.8112L20.5426 21.781L20.5681 21.7508L20.5935 21.7202L20.6182 21.6895L20.6427 21.6586L20.6668 21.6276L20.6905 21.5963L20.7139 21.5648L20.7368 21.5333L20.7595 21.5014L20.7817 21.4694L20.8036 21.4374L20.825 21.405L20.8462 21.3726L20.8668 21.34L20.8872 21.3073L20.9072 21.2744L20.9267 21.2414L20.946 21.2083L20.9647 21.175L20.9832 21.1416L21.0012 21.1081L21.0189 21.0745L21.0361 21.0408L21.053 21.0069L21.0695 20.973L21.0856 20.9389L21.1014 20.9048L21.1167 20.8706L21.1316 20.8363L21.1462 20.8018L21.1603 20.7674L21.1742 20.7327L21.1875 20.6983L21.2005 20.6634L21.2131 20.629L21.2253 20.594L21.2372 20.559L21.2486 20.5242L21.2596 20.4893L21.2703 20.4544L21.2806 20.4191L21.2904 20.3843L21.3001 20.349L21.3091 20.3142L21.3179 20.2789L21.3262 20.2436L21.3341 20.2086L21.3417 20.1736L21.3489 20.1382L21.3557 20.1031L21.3621 20.0678L21.3681 20.0328L21.3738 19.9977L21.3791 19.9625L21.384 19.9273L21.3885 19.8922L21.3927 19.8572L21.3964 19.8223L21.3998 19.7871L21.4028 19.7522L21.4055 19.7173L21.4077 19.6824L21.4097 19.6476L21.4112 19.6129L21.4123 19.5783L21.4131 19.5435L21.4136 19.5088L21.4137 19.4744L21.4133 19.44L21.4127 19.4057L21.4117 19.3715L21.4103 19.3371L21.4085 19.3033L21.4065 19.2688L21.404 19.2352L21.4012 19.2015L21.3981 19.1675L21.3946 19.1339L21.3908 19.1006L21.3866 19.0668L21.3821 19.0338L21.3772 19.0005L21.3721 18.9677L21.3664 18.9346L21.3606 18.9017L21.3544 18.8692L21.3479 18.8367L21.341 18.8042L21.3338 18.772L21.3264 18.7399L21.3185 18.7079L21.3104 18.6763L21.3018 18.6444L21.2932 18.6131L21.284 18.5815L21.2746 18.5505L21.2649 18.5194L21.2549 18.4886L21.2446 18.4579L21.2339 18.4273L21.2231 18.3971L21.2118 18.3671L21.2003 18.3369L21.1885 18.3073L21.1764 18.2774L21.1641 18.2483L21.1514 18.2189L21.1386 18.19L21.1253 18.1613L21.1119 18.1325L21.0982 18.1042L21.0841 18.0759L21.0698 18.0479L21.0553 18.0201L21.0405 17.9925L21.0255 17.9652L21.0102 17.938L20.9946 17.9111L20.9788 17.8844L20.9628 17.8579L20.9464 17.8315L20.9299 17.8056L20.9132 17.7798L20.8962 17.7542L20.8789 17.7288L20.8615 17.7038L20.8438 17.6789L20.8259 17.6543L20.8078 17.6299L20.7894 17.6057L20.771 17.5818L20.7522 17.5581L20.7332 17.5348L20.7141 17.5116L20.6947 17.4887L20.6752 17.466L20.6555 17.4436L20.6356 17.4215L20.6154 17.3996L20.5952 17.3779L20.5747 17.3565L20.554 17.3354L20.5332 17.3145L20.5123 17.294L20.4911 17.2737L20.4698 17.2537L20.4482 17.2338L20.4267 17.2143L20.4049 17.195L20.383 17.176L20.3609 17.1573L20.3387 17.1389L20.3163 17.1207L20.2938 17.1028L20.2712 17.0852L20.2485 17.0678L20.2256 17.0508L20.2026 17.034L20.1794 17.0174L20.1562 17.0012L20.1329 16.9852L20.1095 16.9696L20.0859 16.9542L20.0622 16.939L20.0385 16.9242L20.0146 16.9096L19.9907 16.8953L19.9667 16.8814L19.9426 16.8677L19.9183 16.8542L19.894 16.841L19.8697 16.8281L19.8453 16.8155L19.8209 16.8033L19.7962 16.7912L19.7717 16.7795L19.747 16.7681L19.7223 16.7568L19.6975 16.7459L19.6726 16.7353L19.6479 16.725L19.6229 16.715L19.5978 16.7052L19.5729 16.6957L19.5479 16.6865L19.5229 16.6776L19.4978 16.669L19.4727 16.6605L19.4477 16.6525L19.4225 16.6447L19.3973 16.6371L19.3723 16.6299L19.347 16.6229L19.3219 16.6163L19.2968 16.6099L19.2716 16.6037L19.2464 16.5978L19.2213 16.5922L19.1961 16.5869L19.171 16.5819L19.146 16.5771L19.121 16.5726L19.0958 16.5683L19.071 16.5644L19.0458 16.5607L19.021 16.5573L18.996 16.5541L18.9711 16.5512L18.9464 16.5485L18.9216 16.5462L18.8969 16.544L18.8722 16.5422L18.8476 16.5406L18.823 16.5392L18.7984 16.5382L18.7741 16.5374L18.7497 16.5367L18.7254 16.5364L18.7011 16.5363L18.6769 16.5366L18.6528 16.537L18.6288 16.5376L18.6049 16.5386L18.5811 16.5397L18.5572 16.5412L18.5337 16.5428L18.5101 16.5446L18.4866 16.5468L18.4633 16.5491L18.4398 16.5517L18.4168 16.5545L18.3937 16.5575L18.3707 16.5608L18.3478 16.5643L18.3251 16.568L18.3024 16.5719L18.28 16.5761L18.2575 16.5805L18.2353 16.5851L18.2131 16.5899L18.1911 16.595Z" fill="#43505C"/>
</g>
</svg>
