<svg width="135" height="33" viewBox="0 0 135 33" fill="none" xmlns="http://www.w3.org/2000/svg">
<g style="mix-blend-mode:luminosity" clip-path="url(#clip0_1_415)">
<path d="M14.1844 4.79449C13.9575 4.25887 13.5803 3.51472 13.0257 2.71015C12.4164 1.82629 11.5857 0.85875 10.4916 0.00885338C11.0179 -0.0139551 11.5218 0.0084008 11.988 0.0599795C12.3321 0.396313 12.6376 0.76227 12.9044 1.13797C13.6472 2.18416 14.0663 3.27425 14.1765 3.93355C14.1817 3.96533 14.1933 3.99496 14.2101 4.02162C14.2268 3.99496 14.2384 3.96533 14.2437 3.93355C14.3538 3.27425 14.7731 2.18416 15.5158 1.13797C15.7826 0.76227 16.0881 0.396313 16.4322 0.0599795C16.8983 0.0084008 17.4023 -0.0139551 17.9285 0.00885338C16.8344 0.85875 16.0037 1.82629 15.3945 2.71015C14.8399 3.51472 14.4626 4.25887 14.2357 4.79449V4.91815C14.2274 4.89767 14.2189 4.87684 14.2101 4.85563C14.2012 4.87684 14.1927 4.89767 14.1844 4.91815V4.79449Z" fill="#15447A"/>
<path d="M14.2098 0.593685C13.8815 0.45752 13.4364 0.316759 12.9092 0.206482C13.0944 0.420819 13.2653 0.640464 13.422 0.861192C13.7258 1.28913 13.9799 1.72594 14.1841 2.14349V2.25008C14.1927 2.23221 14.2011 2.21429 14.2098 2.19633C14.2185 2.21429 14.227 2.23221 14.2355 2.25008V2.14349C14.4398 1.72594 14.6938 1.28913 14.9976 0.861192C15.1544 0.640464 15.3253 0.420819 15.5104 0.206482C14.9832 0.316759 14.5383 0.45752 14.2098 0.593685Z" fill="#15447A"/>
<path d="M12.5037 2.98106C11.8375 2.0147 10.9053 0.958031 9.65375 0.0834961C9.38066 0.120633 9.10397 0.171179 8.82568 0.237136C9.78014 0.724294 10.5623 1.45984 11.2365 2.2122C11.6021 2.62013 11.9455 3.04449 12.2688 3.44399C12.4058 3.61339 12.5394 3.77844 12.6694 3.93573C12.9993 4.33501 13.3067 4.68478 13.606 4.95881C13.3941 4.46206 13.0372 3.75494 12.5037 2.98106Z" fill="#15447A"/>
<path d="M10.7565 2.53611C9.96614 1.65412 9.08865 0.873514 8.02018 0.471985C7.66642 0.595269 7.31306 0.746299 6.96402 0.929128C7.91642 1.10845 8.74063 1.62049 9.45423 2.20086C9.96929 2.61975 10.4486 3.09377 10.8829 3.52319C11.0488 3.68723 11.2082 3.84485 11.3604 3.99032C11.6411 4.25864 11.8975 4.48638 12.1365 4.65533C12.1491 4.66427 12.1617 4.673 12.1741 4.68152C12.3217 4.70353 12.4753 4.737 12.6367 4.78221C12.4825 4.61052 12.329 4.42923 12.1753 4.24323C12.0381 4.07728 11.9006 3.90733 11.7613 3.73516C11.4418 3.34022 11.1127 2.93351 10.7565 2.53611Z" fill="#15447A"/>
<path d="M14.2104 31.5611C14.2191 31.5923 14.2277 31.6234 14.2361 31.6545C14.2361 31.5951 14.2361 31.534 14.2361 31.4714C14.3624 31.0375 14.5205 30.6115 14.6953 30.1924C14.9115 29.6739 15.155 29.1624 15.3971 28.6596L15.4733 28.5016C15.6904 28.0514 15.904 27.6082 16.0979 27.1658C16.9364 25.253 17.3747 23.4242 16.0313 21.4581C15.4858 21.6265 14.8393 21.7009 14.2104 21.7064C13.5815 21.7009 12.9352 21.6265 12.3896 21.4581C11.0462 23.4242 11.4845 25.253 12.3229 27.1658C12.5169 27.6082 12.7306 28.0514 12.9476 28.5016L13.0237 28.6596C13.2659 29.1624 13.5094 29.6739 13.7256 30.1924C13.9004 30.6115 14.0585 31.0375 14.1848 31.4714C14.1848 31.534 14.1848 31.5951 14.1848 31.6545C14.1932 31.6234 14.2018 31.5923 14.2104 31.5611Z" fill="#15447A"/>
<path d="M11.8302 21.2421C10.3873 23.3982 10.9017 25.4083 11.7543 27.3532C11.952 27.8043 12.1696 28.2557 12.3861 28.7047L12.4624 28.8628C12.7045 29.3658 12.9428 29.8666 13.1535 30.3719C13.3889 30.9362 13.5879 31.5015 13.7178 32.0731C13.3537 31.4562 12.9474 30.9243 12.5085 30.4542C12.336 30.1179 12.1398 29.7786 11.9331 29.4385C11.7262 29.098 11.5088 28.7566 11.2903 28.4135C10.8353 27.6988 10.3754 26.9768 9.99573 26.2399C9.4368 25.1553 9.08047 24.0886 9.19175 23.0596C9.28951 22.1559 9.75127 21.2537 10.8212 20.3759C11.0218 20.7387 11.379 21.0271 11.8302 21.2421Z" fill="#15447A"/>
<path d="M8.58648 23.0103C8.70733 21.893 9.31442 20.811 10.6475 19.8002C10.6414 19.7259 10.6408 19.6492 10.646 19.5705C10.6886 19.5228 10.785 19.4645 11.0013 19.4048C11.2163 19.3453 11.4757 19.3032 11.7756 19.2545C11.8745 19.2385 11.9777 19.2218 12.0852 19.2035C12.5016 19.1325 12.9633 19.0401 13.3748 18.8713C13.6896 18.742 13.9848 18.5643 14.2106 18.3107C14.4363 18.5643 14.7315 18.742 15.0463 18.8713C15.4578 19.0401 15.9197 19.1325 16.3359 19.2035C16.4435 19.2218 16.5467 19.2385 16.6455 19.2545C16.9455 19.3032 17.2049 19.3453 17.4199 19.4048C17.6361 19.4645 17.7326 19.5228 17.7752 19.5705C17.7803 19.6492 17.7798 19.7259 17.7736 19.8002C19.1068 20.811 19.7138 21.893 19.8347 23.0103C19.9605 24.1734 19.5553 25.3398 18.9804 26.4552C18.5903 27.2123 18.1085 27.9691 17.6468 28.6946C17.5394 28.8633 17.4327 29.0309 17.3289 29.1958C18.1884 28.5526 19.117 28.0231 20.0632 27.4835L20.1779 27.4181C21.1437 25.251 21.2236 23.5421 20.8695 22.1788C20.448 20.5559 19.402 19.385 18.4035 18.4868C18.4012 18.4891 18.3991 18.4913 18.3969 18.4936C18.3922 18.4984 18.3877 18.5032 18.3831 18.5078C18.302 18.5908 18.2283 18.6576 18.1679 18.7069C18.1346 18.734 18.1009 18.7593 18.0698 18.7804C18.0479 18.7948 18.0259 18.8086 18.0016 18.822C17.9514 18.8504 17.893 18.8733 17.8338 18.8881C17.7807 18.9015 17.7244 18.9119 17.6646 18.9193C17.6444 18.9132 17.6244 18.9075 17.6046 18.902C17.3501 18.8316 17.0373 18.7809 16.7274 18.7308C16.6353 18.7159 16.5432 18.701 16.4533 18.6857C16.0431 18.6158 15.6449 18.533 15.3063 18.3942C14.9805 18.2605 14.7267 18.0817 14.5715 17.8249L14.7628 16.7284C14.8224 16.3873 15.0236 16.0764 15.3438 15.872C15.376 15.8515 15.4084 15.831 15.4407 15.8104L15.446 15.807C15.8849 15.5279 16.3414 15.2377 16.7911 14.7829C16.9999 14.5719 17.0957 14.2968 17.0957 14.0187C16.766 14.2932 16.3269 14.4465 15.8699 14.4465H12.5512C12.0943 14.4465 11.6551 14.2932 11.3255 14.0187C11.3255 14.2968 11.4213 14.5719 11.63 14.7829C12.0798 15.2377 12.5362 15.5279 12.9751 15.807L12.9767 15.8079C13.0103 15.8294 13.0439 15.8507 13.0773 15.872C13.3975 16.0764 13.5988 16.3873 13.6584 16.7284L13.8497 17.8249C13.6945 18.0817 13.4407 18.2605 13.1148 18.3942C12.7763 18.533 12.378 18.6158 11.9679 18.6857C11.878 18.701 11.7861 18.7159 11.694 18.7307C11.3841 18.7809 11.071 18.8316 10.8166 18.902C10.7968 18.9075 10.7768 18.9132 10.7566 18.9193C10.6967 18.9119 10.6405 18.9015 10.5874 18.8881C10.5282 18.8733 10.4698 18.8504 10.4195 18.822C10.3952 18.8086 10.3733 18.7948 10.3514 18.7804C10.3202 18.7593 10.2865 18.734 10.2533 18.7069C10.1929 18.6576 10.1191 18.5908 10.038 18.5078C10.0314 18.501 10.0246 18.494 10.0177 18.4868C9.01911 19.385 7.9732 20.5559 7.55164 22.1788C7.19754 23.5421 7.27745 25.251 8.2432 27.4181L8.35785 27.4835C9.30426 28.0231 10.2327 28.5526 11.0923 29.1958C10.9885 29.0309 10.8822 28.8639 10.7748 28.6952C10.313 27.9698 9.83084 27.2123 9.44076 26.4552C8.86588 25.3398 8.4607 24.1734 8.58648 23.0103Z" fill="#15447A"/>
<path d="M9.65774 18.0504C8.60353 18.9867 7.42591 20.2608 6.95782 22.0628C6.61199 23.3941 6.65864 24.992 7.39464 26.9285C6.64744 26.4887 5.89979 26.017 5.17622 25.4533C4.96852 24.8899 4.86865 24.3644 4.85167 23.8732C4.80887 22.6345 5.29163 21.5789 5.97254 20.6425C6.5101 19.9032 7.15869 19.2532 7.76561 18.6447C7.93404 18.4759 8.09957 18.31 8.25833 18.1465C8.59317 17.8019 8.90084 17.4648 9.13433 17.1343L9.17016 17.135C9.26261 17.3813 9.37817 17.616 9.51441 17.8354C9.56227 17.9122 9.6104 17.984 9.65774 18.0504Z" fill="#15447A"/>
<path d="M8.66094 16.7931C8.80471 16.5798 8.90035 16.3855 8.9468 16.2052C8.91854 15.9469 8.91735 15.6861 8.94342 15.4246C8.96531 15.2061 8.99898 14.9251 9.01925 14.76L8.84204 14.6264C8.79967 14.5943 8.75808 14.5622 8.71727 14.5299C8.70206 14.5769 8.68486 14.6251 8.66571 14.6742C8.55412 14.9609 8.36947 15.3014 8.0937 15.689C7.54205 16.4642 6.61738 17.44 5.15175 18.5673C3.39566 19.9179 2.81511 21.2631 2.83602 22.4557C2.8405 22.7111 2.8726 22.9614 2.92775 23.2054C3.37911 23.7925 3.85563 24.3019 4.34877 24.7546C4.28744 24.4582 4.25334 24.1698 4.24363 23.889C4.1961 22.5132 4.73569 21.3543 5.45807 20.3609C6.02275 19.5844 6.71145 18.8944 7.32187 18.2829C7.48594 18.1185 7.64435 17.9597 7.79317 17.8066C8.14968 17.4396 8.44992 17.1062 8.66094 16.7931Z" fill="#15447A"/>
<path d="M8.19503 14.0737C8.192 14.169 8.16464 14.3121 8.0894 14.5055C7.99549 14.7467 7.83294 15.0507 7.5761 15.4117C7.06254 16.1334 6.18042 17.0708 4.74822 18.1724C2.99482 19.521 2.29011 20.9138 2.23126 22.214C2.01436 21.8779 1.81541 21.5408 1.63351 21.2035C1.64256 20.9825 1.66773 20.7627 1.7097 20.5444C1.96233 19.2312 2.83069 17.9417 4.54676 16.772C6.01491 15.7711 6.85082 14.8337 7.33514 14.1208C7.48771 13.8963 7.60478 13.6951 7.69541 13.5223C7.84158 13.7071 8.00742 13.8913 8.19503 14.0737Z" fill="#15447A"/>
<path d="M7.26451 13.0548C7.28055 13.0197 7.29503 12.9869 7.30824 12.9564C7.13419 12.6592 7.0052 12.3634 6.91239 12.0737C6.71824 12.3197 6.45902 12.612 6.12762 12.9416C5.4515 13.6141 4.46313 14.4538 3.08262 15.3904C1.5073 16.4591 0.871795 17.8468 0.683289 19.0181C0.819124 19.4224 0.976967 19.8289 1.15843 20.2361C1.49203 18.8516 2.44985 17.5307 4.17169 16.357C5.58084 15.3964 6.36633 14.5086 6.8119 13.8529C7.03488 13.5248 7.17426 13.2525 7.26451 13.0548Z" fill="#15447A"/>
<path d="M6.74057 11.2897C6.62873 11.5089 6.30278 11.9644 5.6691 12.5947C5.0205 13.2398 4.06072 14.0568 2.70779 14.9747C1.43962 15.835 0.727509 16.8825 0.357648 17.8876C0.136119 16.9668 0.0238056 16.0645 0.00088501 15.1978C0.335872 14.4539 1.29571 13.3072 3.38395 12.457C4.75175 11.9002 5.75355 11.2406 6.43955 10.6524C6.54015 10.5662 6.63442 10.4811 6.72238 10.3976C6.70065 10.6761 6.70227 10.9759 6.74057 11.2897Z" fill="#15447A"/>
<path d="M6.01125 10.277C6.50842 9.85077 6.80693 9.48245 6.94958 9.25028C7.01106 9.05718 7.0839 8.86486 7.16775 8.67392C7.00561 8.61298 6.85082 8.54771 6.70321 8.47852C6.15499 8.88292 5.15769 9.50523 3.10962 10.2122C1.97761 10.6029 1.28341 11.1917 0.882579 11.8412C0.525536 12.4197 0.392999 13.0603 0.409391 13.6756C1.02058 13.0818 1.90272 12.4768 3.1248 11.9793C4.42869 11.4484 5.37354 10.8238 6.01125 10.277Z" fill="#15447A"/>
<path d="M7.40663 8.18855C5.5576 7.49231 4.82322 6.19192 4.8044 5.03358C4.78443 3.80317 5.54701 2.8278 6.55118 2.71712C7.00034 2.66762 7.45487 2.86477 8.11819 3.35332C8.43205 3.5845 8.77508 3.86695 9.17339 4.19489L9.2189 4.23237C9.54666 4.50221 9.90868 4.7995 10.3139 5.11601C10.1385 5.23016 9.96786 5.35895 9.79658 5.49454C9.38322 4.90255 8.27624 4.29854 6.10412 4.42335C5.93654 4.43298 5.80968 4.55866 5.82077 4.70407C5.83188 4.84947 5.97673 4.95953 6.14432 4.9499C8.39733 4.82045 9.15359 5.51524 9.33495 5.87116C9.30726 5.89477 9.27977 5.91848 9.25247 5.94227C8.75898 5.81512 8.15852 5.7892 7.59257 5.8172C6.9573 5.84861 6.32725 5.95004 5.87739 6.08014C5.71806 6.12622 5.63194 6.27565 5.68506 6.41389C5.73817 6.55214 5.9104 6.62686 6.06974 6.58076C6.45958 6.46803 7.03522 6.37332 7.6272 6.34404C8.03585 6.32382 8.43449 6.33572 8.77537 6.38726C8.20865 6.95351 7.74806 7.56085 7.40663 8.18855Z" fill="#15447A"/>
<path d="M9.6378 3.84957C10.0016 4.14906 10.4019 4.47765 10.8544 4.82742C10.9189 4.80112 10.9845 4.77742 11.0515 4.7566C11.1306 4.73205 11.2102 4.71167 11.2908 4.6955C11.1648 4.58501 11.0379 4.4671 10.9101 4.345C10.7441 4.18638 10.5765 4.02054 10.4056 3.85158C9.978 3.42869 9.53025 2.98589 9.03836 2.58586C8.73237 2.33698 8.40339 2.10263 8.05461 1.90841C6.93986 1.28758 5.56777 1.70117 4.66577 2.60368C2.93191 4.33856 3.49927 5.72618 4.05184 6.97265C3.38694 7.05735 2.68143 7.53628 2.04852 8.31217C2.48739 8.08165 2.94323 7.91067 3.38599 7.78637C4.07144 7.59395 4.73512 7.51056 5.27323 7.49274C4.54148 6.75461 4.20997 5.87282 4.19648 5.04101C4.17435 3.67832 5.02959 2.35291 6.47478 2.19363C7.20494 2.11315 7.84086 2.45666 8.51206 2.95104C8.83913 3.19193 9.19337 3.48363 9.58568 3.80664L9.6378 3.84957Z" fill="#15447A"/>
<path d="M3.57294 8.28844C3.13071 8.41259 2.68095 8.58569 2.25593 8.82147C1.49832 9.24175 0.98362 9.98285 0.688693 10.7975C0.622476 10.9804 0.560116 11.1683 0.502014 11.3609C0.989039 10.692 1.75627 10.1116 2.88512 9.72192C4.68556 9.10046 5.62691 8.55529 6.15735 8.18574C6.0779 8.13719 6.00108 8.08734 5.92686 8.0363C5.44052 7.98647 4.53573 8.01814 3.57294 8.28844Z" fill="#15447A"/>
<path d="M13.073 9.79125L12.079 12.769C12.3535 11.9324 12.2632 11.1248 12.145 10.5654C11.7375 10.6011 11.4402 10.5743 11.16 10.5123C10.4207 10.3485 9.92768 9.78053 9.45822 9.23968C9.38841 9.15925 9.31909 9.0794 9.24959 9.00159C9.15415 8.89476 9.04227 8.78384 8.90909 8.66223C9.12363 8.69589 9.33346 8.72668 9.5393 8.75689C10.8122 8.94366 11.9326 9.10806 13.073 9.79125Z" fill="#15447A"/>
<path d="M12.0785 12.7689C12.0749 12.7799 12.0712 12.7908 12.0675 12.8018L12.0785 12.7689Z" fill="#15447A"/>
<path d="M15.9163 2.98106C16.5825 2.0147 17.5147 0.958031 18.7663 0.0834961C19.0393 0.120633 19.3161 0.171179 19.5943 0.237136C18.6399 0.724294 17.8577 1.45984 17.1835 2.2122C16.818 2.62013 16.4746 3.04449 16.1513 3.44399C16.0142 3.61339 15.8807 3.77844 15.7506 3.93573C15.4207 4.33501 15.1133 4.68478 14.814 4.95881C15.0259 4.46206 15.3829 3.75494 15.9163 2.98106Z" fill="#15447A"/>
<path d="M17.6643 2.53611C18.4548 1.65412 19.3322 0.873514 20.4007 0.471985C20.7544 0.595269 21.1078 0.746299 21.4568 0.929128C20.5044 1.10845 19.6802 1.62049 18.9666 2.20086C18.4516 2.61975 17.9722 3.09377 17.538 3.52319C17.372 3.68723 17.2127 3.84485 17.0605 3.99032C16.7798 4.25864 16.5233 4.48638 16.2844 4.65533C16.2717 4.66427 16.2592 4.673 16.2468 4.68152C16.0991 4.70353 15.9456 4.737 15.7841 4.78221C15.9384 4.61052 16.0919 4.42923 16.2456 4.24323C16.3827 4.07728 16.5202 3.90736 16.6595 3.73519C16.9791 3.34025 17.3082 2.93351 17.6643 2.53611Z" fill="#15447A"/>
<path d="M16.5899 21.2421C18.0328 23.3982 17.5184 25.4083 16.6658 27.3532C16.4682 27.8043 16.2505 28.2557 16.034 28.7047L15.9578 28.8628C15.7156 29.3658 15.4774 29.8666 15.2666 30.3719C15.0313 30.9362 14.8322 31.5015 14.7024 32.0731C15.0663 31.4562 15.4727 30.9243 15.9117 30.4542C16.0841 30.1179 16.2803 29.7786 16.487 29.4385C16.6939 29.098 16.9113 28.7566 17.1298 28.4135C17.5848 27.6988 18.0447 26.9768 18.4244 26.2399C18.9834 25.1553 19.3396 24.0886 19.2283 23.0596C19.1306 22.1559 18.6688 21.2537 17.5989 20.3759C17.3983 20.7387 17.0411 21.0271 16.5899 21.2421Z" fill="#15447A"/>
<path d="M18.7624 18.0504C19.8166 18.9867 20.9942 20.2608 21.4623 22.0628C21.8082 23.3941 21.7615 24.992 21.0254 26.9285C21.7728 26.4887 22.5203 26.017 23.244 25.4533C23.4517 24.8899 23.5515 24.3644 23.5685 23.8732C23.6112 22.6345 23.1285 21.5789 22.4476 20.6425C21.91 19.9032 21.2615 19.2532 20.6546 18.6447C20.4861 18.4759 20.3205 18.31 20.1619 18.1465C19.827 17.8019 19.5193 17.4648 19.2859 17.1343L19.2499 17.135C19.1576 17.3813 19.042 17.616 18.9057 17.8354C18.8578 17.9122 18.8097 17.984 18.7624 18.0504Z" fill="#15447A"/>
<path d="M19.7589 16.7931C19.6152 16.5798 19.5195 16.3855 19.473 16.2052C19.5014 15.9469 19.5026 15.6861 19.4765 15.4246C19.4546 15.2061 19.4209 14.9251 19.4006 14.76L19.5778 14.6264C19.6202 14.5943 19.6617 14.5622 19.7026 14.5299C19.7179 14.5769 19.735 14.6251 19.7542 14.6742C19.8658 14.9609 20.0504 15.3014 20.3262 15.689C20.8778 16.4642 21.8025 17.44 23.2681 18.5673C25.0242 19.9179 25.6048 21.2631 25.5839 22.4557C25.5794 22.7111 25.5473 22.9614 25.4921 23.2054C25.0408 23.7925 24.5642 24.3019 24.0711 24.7546C24.1325 24.4582 24.1665 24.1698 24.1763 23.889C24.2237 22.5132 23.6842 21.3543 22.9618 20.3609C22.3972 19.5844 21.7084 18.8944 21.0979 18.2829C20.934 18.1185 20.7755 17.9597 20.6267 17.8066C20.2702 17.4396 19.9699 17.1062 19.7589 16.7931Z" fill="#15447A"/>
<path d="M20.2247 14.0737C20.2278 14.169 20.2552 14.3121 20.3304 14.5055C20.4243 14.7467 20.5869 15.0507 20.8437 15.4117C21.3573 16.1334 22.2393 17.0708 23.6715 18.1724C25.425 19.521 26.1297 20.9138 26.1886 22.214C26.4055 21.8779 26.6044 21.5408 26.7862 21.2035C26.7773 20.9825 26.752 20.7627 26.7101 20.5444C26.4575 19.2312 25.5891 17.9417 23.8731 16.772C22.4049 15.7711 21.569 14.8337 21.0847 14.1208C20.9321 13.8963 20.815 13.6951 20.7244 13.5223C20.5782 13.7071 20.4124 13.8913 20.2247 14.0737Z" fill="#15447A"/>
<path d="M21.1565 13.0548C21.1405 13.0197 21.1259 12.9869 21.1127 12.9564C21.2868 12.6592 21.4158 12.3634 21.5087 12.0737C21.7027 12.3197 21.962 12.612 22.2934 12.9416C22.9695 13.6141 23.9579 14.4538 25.3383 15.3904C26.9137 16.4591 27.5493 17.8468 27.7377 19.0181C27.6019 19.4224 27.4441 19.8289 27.2626 20.2361C26.9289 18.8516 25.9711 17.5307 24.2493 16.357C22.8401 15.3964 22.0547 14.5086 21.609 13.8529C21.3861 13.5248 21.2467 13.2525 21.1565 13.0548Z" fill="#15447A"/>
<path d="M21.6804 11.2897C21.7923 11.5089 22.1182 11.9644 22.7519 12.5947C23.4005 13.2398 24.3603 14.0568 25.7132 14.9747C26.9813 15.835 27.6935 16.8825 28.0634 17.8876C28.2848 16.9668 28.3972 16.0645 28.4201 15.1978C28.0852 14.4539 27.1252 13.3072 25.037 12.457C23.6692 11.9002 22.6675 11.2406 21.9814 10.6524C21.8809 10.5662 21.7865 10.4811 21.6986 10.3976C21.7204 10.6761 21.7188 10.9759 21.6804 11.2897Z" fill="#15447A"/>
<path d="M22.409 10.277C21.9117 9.85077 21.6133 9.48245 21.4706 9.25028C21.4091 9.05718 21.3363 8.86486 21.2525 8.67392C21.4146 8.61298 21.5693 8.54771 21.717 8.47852C22.2652 8.88292 23.2625 9.50523 25.3105 10.2122C26.4426 10.6029 27.1367 11.1917 27.5376 11.8412C27.8947 12.4197 28.0271 13.0603 28.0108 13.6756C27.3996 13.0818 26.5174 12.4768 25.2954 11.9793C23.9915 11.4484 23.0466 10.8238 22.409 10.277Z" fill="#15447A"/>
<path d="M21.0139 8.18855C22.8629 7.49231 23.5974 6.19192 23.6161 5.03358C23.6362 3.80317 22.8735 2.8278 21.8693 2.71712C21.4202 2.66762 20.9657 2.86477 20.3024 3.35332C19.9885 3.5845 19.6455 3.86695 19.2472 4.19489L19.2017 4.23237C18.874 4.50221 18.512 4.7995 18.1066 5.11601C18.2821 5.23016 18.4528 5.35895 18.6239 5.49454C19.0374 4.90255 20.1443 4.29854 22.3165 4.42335C22.4841 4.43298 22.6109 4.55866 22.5998 4.70407C22.5887 4.84947 22.4439 4.95953 22.2763 4.9499C20.0233 4.82045 19.267 5.51524 19.0857 5.87116C19.1133 5.89477 19.1409 5.91848 19.1681 5.94227C19.6616 5.81512 20.2621 5.7892 20.828 5.8172C21.4632 5.84861 22.0933 5.95004 22.5432 6.08014C22.7026 6.12622 22.7886 6.27565 22.7355 6.41389C22.6824 6.55214 22.5101 6.62686 22.3508 6.58076C21.961 6.46803 21.3853 6.37332 20.7934 6.34404C20.3848 6.32382 19.9861 6.33572 19.6452 6.38726C20.212 6.95351 20.6725 7.56085 21.0139 8.18855Z" fill="#15447A"/>
<path d="M18.7828 3.84957C18.419 4.14906 18.0188 4.47765 17.5661 4.82742C17.5017 4.80112 17.4361 4.77742 17.3691 4.7566C17.29 4.73205 17.2104 4.71167 17.1298 4.6955C17.2558 4.58501 17.3828 4.4671 17.5105 4.345C17.6765 4.18638 17.8441 4.02054 18.015 3.85158C18.4427 3.42869 18.8903 2.98589 19.3823 2.58586C19.6883 2.33698 20.0172 2.10263 20.366 1.90841C21.4808 1.28758 22.8528 1.70117 23.7548 2.60368C25.4887 4.33856 24.9213 5.72618 24.3687 6.97265C25.0337 7.05735 25.7392 7.53628 26.3721 8.31217C25.9332 8.08165 25.4774 7.91067 25.0346 7.78637C24.3492 7.59395 23.6855 7.51056 23.1474 7.49274C23.8791 6.75461 24.2106 5.87282 24.2241 5.04101C24.2463 3.67832 23.391 2.35291 21.9458 2.19363C21.2156 2.11315 20.5798 2.45666 19.9085 2.95104C19.5815 3.19193 19.2272 3.48363 18.8349 3.80664L18.7828 3.84957Z" fill="#15447A"/>
<path d="M24.847 8.28844C25.2892 8.41259 25.7389 8.58569 26.164 8.82145C26.9216 9.24173 27.4363 9.98286 27.7312 10.7975C27.7975 10.9804 27.8598 11.1683 27.9179 11.3609C27.4309 10.692 26.6637 10.1116 25.5349 9.72192C23.7344 9.10046 22.793 8.55529 22.2626 8.18574C22.342 8.13719 22.4188 8.08734 22.4931 8.0363C22.9794 7.98647 23.8842 8.01814 24.847 8.28844Z" fill="#15447A"/>
<path d="M15.3476 9.79125L16.3416 12.769C16.3453 12.7802 16.3491 12.7915 16.3528 12.8028L16.3416 12.769C16.0671 11.9324 16.1574 11.1248 16.2756 10.5654C16.683 10.6011 16.9804 10.5743 17.2606 10.5123C17.9999 10.3485 18.4929 9.78053 18.9624 9.23967C19.0323 9.15925 19.1015 9.0794 19.171 9.00159C19.2664 8.89476 19.3784 8.78384 19.5115 8.66223C19.297 8.69589 19.0872 8.72668 18.8813 8.75689C17.6085 8.94366 16.4879 9.10806 15.3476 9.79125Z" fill="#15447A"/>
<path fill-rule="evenodd" clip-rule="evenodd" d="M42.9566 18.5126C42.6466 17.7432 42.4916 16.8992 42.4916 15.9804C42.4916 15.0616 42.6466 14.2235 42.9566 13.4655C43.2667 12.696 43.7031 12.0358 44.2658 11.4845C44.84 10.9218 45.5118 10.4913 46.2812 10.1926C47.0621 9.88256 47.9233 9.72754 48.8649 9.72754C49.8067 9.72754 50.6622 9.88256 51.4317 10.1926C52.2126 10.4913 52.8844 10.9218 53.447 11.4845C54.0212 12.0358 54.4633 12.696 54.7733 13.4655C55.0835 14.2235 55.2385 15.0616 55.2385 15.9804C55.2385 16.8992 55.0835 17.7432 54.7733 18.5126C54.4633 19.2704 54.0212 19.9308 53.447 20.4935C52.8844 21.0448 52.2126 21.4753 51.4317 21.7854C50.6622 22.0841 49.8067 22.2333 48.8649 22.2333C47.9233 22.2333 47.0621 22.0841 46.2812 21.7854C45.5118 21.4753 44.84 21.0448 44.2658 20.4935C43.7031 19.9308 43.2667 19.2704 42.9566 18.5126ZM52.8614 15.9804C52.8614 15.1766 52.6891 14.476 52.3446 13.8789C52.0116 13.2702 51.5464 12.7937 50.9493 12.4491C50.3522 12.1047 49.6574 11.9324 48.8649 11.9324C48.0841 11.9324 47.3894 12.1047 46.7807 12.4491C46.1835 12.7937 45.7127 13.2702 45.3683 13.8789C45.0352 14.476 44.8687 15.1766 44.8687 15.9804C44.8687 16.7727 45.0352 17.4733 45.3683 18.082C45.7127 18.6906 46.1835 19.1671 46.7807 19.5117C47.3894 19.8562 48.0841 20.0284 48.8649 20.0284C49.6574 20.0284 50.3522 19.8562 50.9493 19.5117C51.5464 19.1671 52.0116 18.6906 52.3446 18.082C52.6891 17.4733 52.8614 16.7727 52.8614 15.9804Z" fill="#15447A"/>
<path d="M66.4373 12.9832H66.5751V9.95145C66.403 10.0203 66.2077 10.0548 65.9895 10.0548C65.7942 10.0548 65.4784 10.0032 65.042 9.89981C64.6172 9.78494 64.1004 9.72754 63.4918 9.72754C62.1367 9.72754 60.9481 9.99169 59.9261 10.5199C58.9155 11.0367 58.1289 11.7659 57.5663 12.7075C57.0035 13.6377 56.7221 14.7286 56.7221 15.9804C56.7221 16.8877 56.8771 17.7259 57.1871 18.4953C57.4972 19.2532 57.9394 19.9135 58.5136 20.4763C59.0877 21.039 59.7595 21.4753 60.529 21.7854C61.3099 22.0841 62.1654 22.2333 63.0955 22.2333C64.3129 22.2333 65.3635 21.9806 66.2478 21.4753C67.1321 20.9701 67.8096 20.2697 68.2804 19.3739C68.7627 18.4781 69.004 17.4447 69.004 16.2732C69.004 16.1839 69.0082 16.0989 69.0169 16.0184C69.0306 15.8917 69.055 15.7757 69.09 15.6704C69.159 15.4981 69.2508 15.3546 69.3657 15.2398V15.102H63.8363C63.7857 15.102 63.7347 15.1015 63.6836 15.1005C63.6364 15.0997 63.5891 15.0985 63.5415 15.0968C63.4672 15.0942 63.3925 15.0908 63.3174 15.0862C63.2327 15.0813 63.1471 15.075 63.0612 15.0674C62.797 15.0444 62.5615 15.0101 62.3549 14.9641V17.772H62.4927C62.6305 17.5766 62.8601 17.4216 63.1817 17.3068C63.5033 17.1805 63.9224 17.1173 64.4391 17.1173H66.5569C66.5426 17.6572 66.3936 18.1452 66.11 18.5815C65.8115 19.0294 65.3981 19.3854 64.8697 19.6494C64.3531 19.902 63.7616 20.0284 63.0955 20.0284C62.3147 20.0284 61.6199 19.8562 61.0113 19.5117C60.4141 19.1671 59.9433 18.6906 59.5989 18.082C59.2657 17.4733 59.0992 16.7727 59.0992 15.9804C59.0992 15.1651 59.283 14.4531 59.6505 13.8445C60.0179 13.2359 60.5348 12.765 61.2008 12.432C61.8782 12.0989 62.665 11.9324 63.5607 11.9324C63.8823 11.9324 64.1808 11.9554 64.4564 12.0013C64.7434 12.0358 65.0076 12.0989 65.2489 12.1908C65.5014 12.2712 65.7312 12.3918 65.9378 12.5525C66.156 12.7133 66.3225 12.8568 66.4373 12.9832Z" fill="#15447A"/>
<path fill-rule="evenodd" clip-rule="evenodd" d="M70.8472 18.5126C70.5372 17.7432 70.3821 16.8992 70.3821 15.9804C70.3821 15.0616 70.5372 14.2235 70.8472 13.4655C71.1572 12.696 71.5936 12.0358 72.1563 11.4845C72.7306 10.9218 73.4024 10.4913 74.1717 10.1926C74.9527 9.88256 75.8139 9.72754 76.7555 9.72754C77.6972 9.72754 78.5528 9.88256 79.3221 10.1926C80.103 10.4913 80.7749 10.9218 81.3375 11.4845C81.9118 12.0358 82.3539 12.696 82.6639 13.4655C82.9741 14.2235 83.1291 15.0616 83.1291 15.9804C83.1291 16.8992 82.9741 17.7432 82.6639 18.5126C82.3539 19.2704 81.9118 19.9308 81.3375 20.4935C80.7749 21.0448 80.103 21.4753 79.3221 21.7854C78.5528 22.0841 77.6972 22.2333 76.7555 22.2333C75.8139 22.2333 74.9527 22.0841 74.1717 21.7854C73.4024 21.4753 72.7306 21.0448 72.1563 20.4935C71.5936 19.9308 71.1572 19.2704 70.8472 18.5126ZM80.7519 15.9804C80.7519 15.1766 80.5795 14.476 80.235 13.8789C79.9021 13.2702 79.4369 12.7937 78.8398 12.4491C78.2427 12.1047 77.548 11.9324 76.7555 11.9324C75.9746 11.9324 75.28 12.1047 74.6713 12.4491C74.074 12.7937 73.6032 13.2702 73.2588 13.8789C72.9258 14.476 72.7593 15.1766 72.7593 15.9804C72.7593 16.7727 72.9258 17.4733 73.2588 18.082C73.6032 18.6906 74.074 19.1671 74.6713 19.5117C75.28 19.8562 75.9746 20.0284 76.7555 20.0284C77.548 20.0284 78.2427 19.8562 78.8398 19.5117C79.4369 19.1671 79.9021 18.6906 80.235 18.082C80.5795 17.4733 80.7519 16.7727 80.7519 15.9804Z" fill="#15447A"/>
<path d="M102.681 11.6568C102.256 12.254 101.837 13.0636 101.424 14.0856L100.097 17.3413C99.8332 17.9958 99.5864 18.4954 99.3567 18.8399C99.1384 19.1844 98.9203 19.4199 98.702 19.5462C98.4954 19.6725 98.2656 19.7357 98.0131 19.7357C97.8178 19.7357 97.6341 19.7012 97.4618 19.6322C97.2895 19.5519 97.1403 19.4427 97.014 19.305H96.8762V21.8888C96.8932 21.8935 96.9104 21.8981 96.9283 21.9023C96.9561 21.9093 96.985 21.916 97.0149 21.9224C97.0492 21.9297 97.0849 21.9367 97.1218 21.9434C97.1853 21.955 97.2526 21.9654 97.324 21.9749C97.5078 21.9979 97.7088 22.0094 97.9269 22.0094C98.4666 22.0094 98.9489 21.9347 99.3739 21.7854C99.8102 21.6361 100.201 21.4008 100.545 21.0793C100.89 20.7462 101.217 20.3213 101.527 19.8045C101.837 19.2877 102.141 18.6619 102.44 17.927L103.766 14.6713C104.031 14.0168 104.277 13.5172 104.507 13.1727C104.748 12.8167 104.972 12.5755 105.179 12.4493C105.193 12.4398 105.207 12.4306 105.221 12.4218L105.252 12.4032L105.274 12.3901L105.29 12.3812L105.314 12.3687C105.325 12.3627 105.336 12.357 105.348 12.3514C105.371 12.3396 105.395 12.3289 105.419 12.3191C105.542 12.2681 105.663 12.2425 105.782 12.2425C105.965 12.2425 106.132 12.2827 106.281 12.3631C106.431 12.432 106.545 12.5124 106.626 12.6043H106.764V9.89984C106.695 9.92284 106.626 9.93999 106.557 9.95148C106.531 9.95584 106.505 9.9594 106.479 9.96218C106.464 9.96377 106.448 9.96506 106.433 9.96605C106.421 9.96685 106.41 9.96744 106.398 9.96784C106.382 9.96842 106.366 9.96873 106.35 9.96873H106.126C106.09 9.96268 106.042 9.95832 105.981 9.95545C105.925 9.95278 105.859 9.95148 105.782 9.95148C105.15 9.95148 104.582 10.0836 104.076 10.3477C103.583 10.6118 103.117 11.0482 102.681 11.6568Z" fill="#15447A"/>
<path d="M107.886 12.0703C107.886 11.5535 107.841 11.1459 107.749 10.8473C107.657 10.5373 107.525 10.3134 107.352 10.1755V10.0377H110.712V10.1755C110.539 10.3134 110.407 10.5373 110.315 10.8473C110.223 11.1459 110.177 11.5535 110.177 12.0703V17.5997C110.177 18.3921 110.35 18.9949 110.694 19.4084C111.039 19.8219 111.544 20.0286 112.21 20.0286C112.876 20.0286 113.381 19.8219 113.726 19.4084C114.07 18.9949 114.243 18.3921 114.243 17.5997V12.0703C114.243 11.5535 114.197 11.1459 114.105 10.8473C114.013 10.5373 113.881 10.3134 113.709 10.1755V10.0377H117.068V10.1755C116.895 10.3134 116.763 10.5373 116.672 10.8473C116.58 11.1459 116.534 11.5535 116.534 12.0703V17.703C116.534 18.6791 116.367 19.5061 116.034 20.1836C115.713 20.861 115.23 21.3721 114.587 21.7166C113.944 22.0612 113.152 22.2335 112.21 22.2335C111.268 22.2335 110.476 22.0612 109.833 21.7166C109.19 21.3721 108.702 20.861 108.369 20.1836C108.047 19.5061 107.886 18.6791 107.886 17.703V12.0703Z" fill="#15447A"/>
<path d="M118.84 12.2081C118.84 11.6914 118.788 11.2607 118.685 10.9162C118.581 10.5717 118.432 10.3248 118.237 10.1755V10.0377H121.303V10.1411C121.13 10.3593 121.062 10.6119 121.096 10.899C121.13 11.1861 121.285 11.456 121.561 11.7086L124.631 14.4647L127.487 11.8119C127.797 11.5249 127.975 11.232 128.021 10.9335C128.078 10.6234 128.026 10.3593 127.866 10.1411V10.0377H130.932V10.1755C130.748 10.3248 130.599 10.5717 130.484 10.9162C130.381 11.2607 130.329 11.6914 130.329 12.2081V19.8907C130.329 20.4075 130.375 20.8209 130.467 21.131C130.559 21.4295 130.691 21.6478 130.863 21.7856V21.9233H127.504V21.7856C127.676 21.6478 127.808 21.4295 127.9 21.131C127.992 20.8209 128.038 20.4075 128.038 19.8907V14.1159L124.627 17.2036H124.558L121.13 14.1508V19.8907C121.13 20.4075 121.177 20.8209 121.268 21.131C121.36 21.4295 121.492 21.6478 121.665 21.7856V21.9233H118.305V21.7856C118.478 21.6478 118.61 21.4295 118.702 21.131C118.794 20.8209 118.84 20.4075 118.84 19.8907V12.2081Z" fill="#15447A"/>
<path fill-rule="evenodd" clip-rule="evenodd" d="M92.079 19.8907C92.079 20.419 92.1308 20.8382 92.2341 21.1482C92.3489 21.4468 92.504 21.6593 92.6992 21.7856V21.9233H89.254V21.7856C89.4264 21.6478 89.5584 21.4295 89.6502 21.131C89.7422 20.8209 89.7882 20.4075 89.7882 19.8907V12.0703C89.7882 11.5535 89.7364 11.1459 89.6331 10.8473C89.5297 10.5373 89.3862 10.3134 89.2024 10.1755V10.0377H93.4915C94.9616 10.0377 96.1099 10.4167 96.9367 11.1746C97.775 11.9326 98.1941 12.9776 98.1941 14.3097C98.1941 15.1938 98.0046 15.9576 97.6258 16.6007C97.2468 17.2322 96.707 17.7203 96.0065 18.0648C95.3061 18.4093 94.4678 18.5816 93.4915 18.5816H92.079V19.8907ZM92.079 12.1392V16.4801H93.3882C94.1807 16.4801 94.7835 16.2964 95.1969 15.9289C95.6104 15.5499 95.817 15.0102 95.817 14.3097C95.817 13.5977 95.6104 13.058 95.1969 12.6904C94.7835 12.323 94.1807 12.1392 93.3882 12.1392H92.079Z" fill="#15447A"/>
<path d="M84.9406 10.8473C85.0326 11.1459 85.0784 11.5535 85.0784 12.0703V19.8907C85.0784 20.1097 85.0703 20.3103 85.0537 20.4922C85.0312 20.7394 84.9937 20.9523 84.9406 21.131C84.9135 21.2195 84.8828 21.301 84.8484 21.3753C84.8163 21.445 84.7811 21.5084 84.7428 21.5656C84.684 21.6535 84.618 21.7269 84.5445 21.7856V21.9233H87.9035V21.7856C87.7313 21.6478 87.5991 21.4295 87.5073 21.131C87.4155 20.8209 87.3695 20.4075 87.3695 19.8907V12.0703C87.3695 11.5535 87.4155 11.1459 87.5073 10.8473C87.5991 10.5373 87.7313 10.3134 87.9035 10.1755V10.0377H84.5445V10.1755C84.7168 10.3134 84.8488 10.5373 84.9406 10.8473Z" fill="#15447A"/>
<path d="M36.3817 19.7874H39.8784C40.3953 19.7874 40.8086 19.7414 41.1187 19.6495C41.4287 19.5463 41.6527 19.4026 41.7905 19.219H41.9283V22.0612C41.7216 22.0036 41.4863 21.9636 41.2221 21.9406C40.9694 21.9291 40.7111 21.9233 40.4469 21.9233H33.505V21.7856C33.6888 21.6478 33.8323 21.4295 33.9358 21.131C34.0389 20.8209 34.0908 20.4075 34.0908 19.8907V12.0703C34.0908 11.5535 34.0447 11.1459 33.9529 10.8473C33.861 10.5373 33.7289 10.3134 33.5566 10.1755V10.0377H37.0018V10.1755C36.9163 10.2308 36.8385 10.3027 36.7683 10.3911C36.6785 10.5045 36.6013 10.645 36.5368 10.8128C36.4333 11.1115 36.3817 11.5306 36.3817 12.0703V19.7874Z" fill="#15447A"/>
<path fill-rule="evenodd" clip-rule="evenodd" d="M123.82 27.73C123.82 28.3073 123.92 28.751 124.12 29.0613C124.32 29.3716 124.605 29.5268 124.976 29.5268C125.353 29.5268 125.64 29.3716 125.837 29.0613C126.037 28.751 126.137 28.3073 126.137 27.73C126.137 27.1528 126.037 26.709 125.837 26.3987C125.64 26.0884 125.353 25.9332 124.976 25.9332C124.605 25.9332 124.32 26.0884 124.12 26.3987C123.92 26.709 123.82 27.1528 123.82 27.73ZM125.702 27.73C125.702 28.1872 125.64 28.5341 125.516 28.771C125.396 29.008 125.216 29.1264 124.976 29.1264C124.739 29.1264 124.559 29.008 124.435 28.771C124.312 28.5341 124.25 28.1872 124.25 27.73C124.25 27.273 124.312 26.9259 124.435 26.689C124.559 26.452 124.739 26.3336 124.976 26.3336C125.216 26.3336 125.396 26.452 125.516 26.689C125.64 26.9259 125.702 27.273 125.702 27.73Z" fill="#15447A"/>
<path d="M122.824 29.0613H121.877L122.463 28.2657C122.68 27.9719 122.835 27.7184 122.929 27.5049C123.025 27.2913 123.074 27.0911 123.074 26.9043C123.074 26.6106 122.974 26.3787 122.774 26.2086C122.573 26.035 122.301 25.9482 121.958 25.9482C121.834 25.9482 121.731 25.9567 121.647 25.9732C121.564 25.9899 121.496 26.0066 121.442 26.0233C121.392 26.0367 121.349 26.0434 121.312 26.0434H121.257C121.24 26.0401 121.215 26.0367 121.182 26.0334V26.6589H121.217C121.24 26.6223 121.267 26.5889 121.297 26.5588C121.33 26.5289 121.369 26.5004 121.412 26.4738C121.466 26.4404 121.536 26.4104 121.622 26.3838C121.709 26.357 121.803 26.3437 121.903 26.3437C122.126 26.3437 122.303 26.3987 122.433 26.5089C122.563 26.619 122.628 26.769 122.628 26.9594C122.628 27.0594 122.605 27.1728 122.558 27.2996C122.512 27.4231 122.436 27.5682 122.333 27.7351C122.233 27.9019 122.101 28.0971 121.938 28.3207L121.132 29.4218V29.4568H122.969C123.032 29.4568 123.094 29.4585 123.154 29.4619C123.214 29.4685 123.267 29.4784 123.314 29.4918V28.8612H123.274C123.241 28.9246 123.187 28.9746 123.114 29.0114C123.044 29.0448 122.947 29.0613 122.824 29.0613Z" fill="#15447A"/>
<path d="M110.045 29.0515H108.804V27.7051H109.444C109.555 27.7051 109.636 27.7167 109.69 27.7401C109.743 27.7601 109.783 27.7902 109.81 27.8302H109.845V27.1795H109.81C109.783 27.2162 109.743 27.2463 109.69 27.2697C109.636 27.2929 109.555 27.3047 109.444 27.3047H108.804V26.4088H110.015C110.138 26.4088 110.235 26.4255 110.305 26.4588C110.379 26.4922 110.432 26.5423 110.465 26.609H110.506V25.9683C110.459 25.9783 110.405 25.9866 110.345 25.9933C110.285 26 110.224 26.0033 110.16 26.0033H108.198V26.0434C108.252 26.0735 108.293 26.1252 108.323 26.1986C108.357 26.2719 108.373 26.3754 108.373 26.5089V28.9513C108.373 29.0848 108.357 29.1882 108.323 29.2617C108.293 29.3351 108.252 29.3868 108.198 29.4169V29.4568H110.19C110.254 29.4568 110.315 29.4586 110.375 29.4619C110.439 29.4686 110.492 29.4785 110.535 29.4918V28.8512H110.5C110.467 28.9146 110.414 28.9646 110.34 29.0014C110.267 29.0348 110.168 29.0515 110.045 29.0515Z" fill="#15447A"/>
<path d="M112.462 26.5639H112.427C112.403 26.5339 112.373 26.5072 112.337 26.4839C112.303 26.4572 112.265 26.4355 112.221 26.4188C112.191 26.4088 112.156 26.4004 112.116 26.3937C112.076 26.3838 112.031 26.3787 111.981 26.3787C111.811 26.3787 111.674 26.4222 111.571 26.5089C111.467 26.5956 111.416 26.7057 111.416 26.8392C111.416 26.9427 111.444 27.0344 111.501 27.1145C111.557 27.1912 111.656 27.2764 111.796 27.3698L112.056 27.5399C112.203 27.6367 112.323 27.7368 112.417 27.8402C112.513 27.9403 112.585 28.0471 112.632 28.1605C112.679 28.274 112.702 28.3991 112.702 28.5359C112.702 28.8162 112.6 29.0448 112.397 29.2216C112.196 29.3951 111.909 29.4818 111.536 29.4818C111.439 29.4818 111.341 29.4751 111.24 29.4619C111.144 29.4519 111.064 29.4401 111 29.4267V28.8663H111.035L111.115 28.9463C111.142 28.9664 111.172 28.9847 111.205 29.0014C111.245 29.0248 111.296 29.0448 111.356 29.0614C111.416 29.0781 111.482 29.0865 111.556 29.0865C111.766 29.0865 111.933 29.0364 112.056 28.9363C112.18 28.8329 112.241 28.6994 112.241 28.5359C112.241 28.4057 112.201 28.2907 112.121 28.1906C112.045 28.0872 111.914 27.9753 111.731 27.8552L111.476 27.6801C111.292 27.56 111.159 27.4331 111.075 27.2996C110.995 27.1663 110.955 27.0144 110.955 26.8442C110.955 26.584 111.05 26.3754 111.24 26.2186C111.434 26.0584 111.699 25.9783 112.036 25.9783C112.103 25.9783 112.158 25.9817 112.201 25.9884C112.248 25.9917 112.288 25.9933 112.321 25.9933C112.358 25.9933 112.405 25.985 112.462 25.9683V26.5639Z" fill="#15447A"/>
<path d="M113.373 26.4088H113.939V28.9813C113.939 29.1082 113.924 29.2049 113.894 29.2716C113.867 29.3384 113.827 29.3884 113.773 29.4218V29.4568H114.534V29.4218C114.481 29.3884 114.439 29.3384 114.409 29.2716C114.382 29.2049 114.369 29.1082 114.369 28.9813V26.4088H114.935C115.058 26.4088 115.155 26.4255 115.225 26.4588C115.298 26.4922 115.352 26.5423 115.385 26.609H115.425V25.9683C115.378 25.9783 115.325 25.9866 115.265 25.9933C115.205 26 115.143 26.0033 115.08 26.0033H113.228C113.168 26.0033 113.106 26 113.043 25.9933C112.983 25.9866 112.929 25.9783 112.883 25.9683V26.609H112.923C112.956 26.5423 113.008 26.4922 113.078 26.4588C113.151 26.4255 113.25 26.4088 113.373 26.4088Z" fill="#15447A"/>
<path fill-rule="evenodd" clip-rule="evenodd" d="M116.85 26.0033C117.254 26.0033 117.599 26.0717 117.886 26.2086C118.177 26.3453 118.399 26.5439 118.552 26.8042C118.709 27.061 118.787 27.3697 118.787 27.73C118.787 28.0905 118.709 28.4008 118.552 28.661C118.399 28.9179 118.177 29.1148 117.886 29.2516C117.599 29.3884 117.254 29.4568 116.85 29.4568H115.764V29.4168C115.818 29.3867 115.859 29.335 115.889 29.2617C115.923 29.1882 115.939 29.0847 115.939 28.9512V26.5088C115.939 26.3753 115.923 26.2719 115.889 26.1985C115.859 26.1252 115.818 26.0735 115.764 26.0434V26.0033H116.85ZM118.337 27.73C118.337 27.4632 118.278 27.2312 118.162 27.0343C118.045 26.8341 117.88 26.6807 117.666 26.5739C117.456 26.4638 117.204 26.4088 116.91 26.4088H116.37V29.0514H116.91C117.204 29.0514 117.456 28.998 117.666 28.8912C117.88 28.7811 118.045 28.6277 118.162 28.4307C118.278 28.2305 118.337 27.997 118.337 27.73Z" fill="#15447A"/>
<path d="M119.067 29.1966C119.067 29.2833 119.096 29.3567 119.152 29.4168C119.213 29.4768 119.288 29.5069 119.378 29.5069C119.464 29.5069 119.536 29.4768 119.593 29.4168C119.653 29.3567 119.683 29.2833 119.683 29.1966C119.683 29.1131 119.653 29.0414 119.593 28.9813C119.536 28.9213 119.464 28.8912 119.378 28.8912C119.288 28.8912 119.213 28.9213 119.152 28.9813C119.096 29.0414 119.067 29.1131 119.067 29.1966Z" fill="#15447A"/>
<path d="M127.826 28.9813C127.826 29.1082 127.841 29.2049 127.871 29.2716C127.904 29.3384 127.947 29.3884 128.001 29.4218V29.4568H127.215V29.4218C127.272 29.3884 127.315 29.3384 127.345 29.2716C127.378 29.2049 127.395 29.1082 127.395 28.9813V26.5639L126.634 26.9293H126.594V26.5138L127.785 25.9683H127.826V28.9813Z" fill="#15447A"/>
<path fill-rule="evenodd" clip-rule="evenodd" d="M130.091 28.0603C129.968 28.1105 129.838 28.1355 129.701 28.1355C129.494 28.1355 129.309 28.0887 129.145 27.9953C128.982 27.9019 128.853 27.7734 128.76 27.6099C128.666 27.4464 128.62 27.2612 128.62 27.0543C128.62 26.8341 128.67 26.6406 128.77 26.4738C128.87 26.3035 129.007 26.1718 129.18 26.0784C129.354 25.9816 129.554 25.9332 129.781 25.9332C130.004 25.9332 130.203 25.9799 130.376 26.0734C130.55 26.1635 130.685 26.2902 130.782 26.4537C130.882 26.6172 130.932 26.8058 130.932 27.0193C130.932 27.1662 130.907 27.3146 130.857 27.4647C130.807 27.6116 130.723 27.7801 130.607 27.9703L129.701 29.4567H129.22V29.4217L130.091 28.0603ZM130.507 27.0394C130.507 27.1794 130.475 27.3046 130.412 27.4147C130.348 27.5249 130.261 27.6116 130.151 27.6749C130.041 27.7351 129.914 27.765 129.771 27.765C129.627 27.765 129.502 27.7351 129.395 27.6749C129.289 27.6149 129.204 27.5315 129.14 27.4248C129.08 27.3146 129.05 27.1912 129.05 27.0543C129.05 26.9109 129.08 26.7857 129.14 26.6789C129.204 26.5722 129.29 26.4888 129.401 26.4288C129.511 26.3653 129.637 26.3336 129.781 26.3336C129.921 26.3336 130.044 26.3637 130.151 26.4237C130.261 26.4838 130.348 26.5672 130.412 26.674C130.475 26.7774 130.507 26.8992 130.507 27.0394Z" fill="#15447A"/>
<path d="M134.097 9.01087C134.097 9.59356 133.625 10.0659 133.042 10.0659C132.459 10.0659 131.987 9.59356 131.987 9.01087C131.987 8.42817 132.459 7.95581 133.042 7.95581C133.625 7.95581 134.097 8.42817 134.097 9.01087Z" fill="#15447A"/>
</g>
<defs>
<clipPath id="clip0_1_415">
<rect width="134.975" height="32.0732" fill="white"/>
</clipPath>
</defs>
</svg>
