<svg width="138" height="26" viewBox="0 0 138 26" fill="none" xmlns="http://www.w3.org/2000/svg">
<g style="mix-blend-mode:luminosity" clip-path="url(#clip0_1_493)">
<path d="M54.1891 5.03864H51.3169V17.9988H59.2682V15.4593H54.1891V5.03864Z" fill="#4845D2"/>
<path d="M59.5423 13.6029C59.5423 16.37 61.3988 18.209 64.2009 18.209C66.9856 18.209 68.8421 16.37 68.8421 13.6029C68.8421 10.8357 66.9856 8.97919 64.2009 8.97919C61.3988 8.97919 59.5423 10.8357 59.5423 13.6029ZM62.2569 13.5853C62.2569 12.2718 63.0275 11.3961 64.2009 11.3961C65.3568 11.3961 66.1275 12.2718 66.1275 13.5853C66.1275 14.9164 65.3568 15.7921 64.2009 15.7921C63.0275 15.7921 62.2569 14.9164 62.2569 13.5853Z" fill="#4845D2"/>
<path d="M69.276 13.4628C69.276 16.1073 70.9924 17.8937 73.4268 17.8937C74.6002 17.8937 75.616 17.4734 76.1239 16.7904V17.9988C76.1239 19.2072 75.3708 20.0128 74.0398 20.0128C72.8488 20.0128 72.0256 19.4524 71.9731 18.4541H69.241C69.4862 20.8535 71.3426 22.4647 73.8821 22.4647C76.8769 22.4647 78.7685 20.5208 78.7685 17.4383V9.24193H76.334L76.1939 10.1351C75.7035 9.41705 74.6702 8.94421 73.4794 8.94421C71.0274 8.94421 69.276 10.7831 69.276 13.4628ZM72.0082 13.3927C72.0082 12.1316 72.8488 11.291 73.9172 11.291C75.1606 11.291 76.0713 12.1142 76.0713 13.3927C76.0713 14.6712 75.1781 15.5469 73.9346 15.5469C72.8664 15.5469 72.0082 14.6712 72.0082 13.3927Z" fill="#4845D2"/>
<path d="M79.5547 13.6029C79.5547 16.37 81.4113 18.209 84.2137 18.209C86.9985 18.209 88.8547 16.37 88.8547 13.6029C88.8547 10.8357 86.9985 8.97919 84.2137 8.97919C81.4113 8.97919 79.5547 10.8357 79.5547 13.6029ZM82.2693 13.5853C82.2693 12.2718 83.0398 11.3961 84.2137 11.3961C85.3691 11.3961 86.1397 12.2718 86.1397 13.5853C86.1397 14.9164 85.3691 15.7921 84.2137 15.7921C83.0398 15.7921 82.2693 14.9164 82.2693 13.5853Z" fill="#4845D2"/>
<path d="M91.1798 7.87588C92.0201 7.87588 92.7033 7.19284 92.7033 6.33467C92.7033 5.47649 92.0201 4.81097 91.1798 4.81097C90.3218 4.81097 89.6387 5.47649 89.6387 6.33467C89.6387 7.19284 90.3218 7.87588 91.1798 7.87588ZM89.8135 17.9988H92.5285V9.24196H89.8135V17.9988Z" fill="#4845D2"/>
<path d="M94.1091 22.202H96.7711V17.1231C97.2787 17.7886 98.4349 18.244 99.6433 18.244C102.252 18.244 103.829 16.2474 103.759 13.4802C103.689 10.6605 102.06 8.96167 99.6257 8.96167C98.382 8.96167 97.2089 9.50459 96.7182 10.3103L96.5779 9.24191H94.1091V22.202ZM96.8233 13.6203C96.8233 12.3068 97.6989 11.4311 98.9601 11.4311C100.238 11.4311 101.044 12.3243 101.044 13.6203C101.044 14.9164 100.238 15.8095 98.9601 15.8095C97.6989 15.8095 96.8233 14.9339 96.8233 13.6203Z" fill="#4845D2"/>
<path d="M104.046 15.2316C104.116 17.0005 105.518 18.2264 107.724 18.2264C109.843 18.2264 111.315 17.1055 111.315 15.3017C111.315 14.0057 110.544 13.1475 109.107 12.7971L107.549 12.4119C106.989 12.2718 106.639 12.1316 106.639 11.6763C106.639 11.2209 107.006 10.9232 107.549 10.9232C108.162 10.9232 108.565 11.326 108.548 11.9215H110.982C110.911 10.1 109.528 8.96167 107.602 8.96167C105.658 8.96167 104.204 10.1176 104.204 11.8689C104.204 13.0423 104.852 14.0057 106.586 14.461L108.127 14.8638C108.582 14.9864 108.775 15.1965 108.775 15.4943C108.775 15.9321 108.372 16.2124 107.689 16.2124C106.901 16.2124 106.481 15.8446 106.481 15.2316H104.046Z" fill="#4845D2"/>
<path d="M115.442 18.2264C116.511 18.2264 117.579 17.736 118.122 17.018L118.298 17.9988H120.837V9.24194H118.14V13.7955C118.14 15.109 117.755 15.827 116.511 15.827C115.548 15.827 114.917 15.3892 114.917 13.7605V9.24194H112.22V14.7412C112.22 16.8254 113.376 18.2264 115.442 18.2264Z" fill="#4845D2"/>
<path d="M125.114 17.9988V13.2176C125.114 11.7464 125.902 11.326 126.673 11.326C127.531 11.326 128.091 11.8515 128.091 12.9373V17.9988H130.753V13.2176C130.753 11.7289 131.524 11.3086 132.294 11.3086C133.152 11.3086 133.73 11.8339 133.73 12.9373V17.9988H136.358V12.2718C136.358 10.2753 135.307 8.94421 133.047 8.94421C131.787 8.94421 130.753 9.55713 130.298 10.5029C129.773 9.55713 128.862 8.94421 127.408 8.94421C126.445 8.94421 125.552 9.38201 125.027 10.0826L124.922 9.24193H122.399V17.9988H125.114Z" fill="#4845D2"/>
<path d="M0 12.8293C0 5.74386 5.74386 0 12.8293 0H29.6677C36.7531 0 42.497 5.74386 42.497 12.8293V25.6585H12.8293C5.74386 25.6585 0 19.9147 0 12.8293Z" fill="#4845D2"/>
<path d="M29.6675 4.81097H12.8291C8.4007 4.81097 4.81079 8.40089 4.81079 12.8293C4.81079 17.2576 8.4007 20.8476 12.8291 20.8476H29.6675C34.0959 20.8476 37.6858 17.2576 37.6858 12.8293C37.6858 8.40089 34.0959 4.81097 29.6675 4.81097Z" fill="#A5B4FC"/>
<path d="M12.8291 16.8384C15.0433 16.8384 16.8382 15.0435 16.8382 12.8293C16.8382 10.6151 15.0433 8.82013 12.8291 8.82013C10.6149 8.82013 8.81995 10.6151 8.81995 12.8293C8.81995 15.0435 10.6149 16.8384 12.8291 16.8384Z" fill="black"/>
<path d="M11.2254 12.0274C11.6683 12.0274 12.0272 11.6684 12.0272 11.2256C12.0272 10.7828 11.6683 10.4238 11.2254 10.4238C10.7826 10.4238 10.4236 10.7828 10.4236 11.2256C10.4236 11.6684 10.7826 12.0274 11.2254 12.0274Z" fill="white"/>
<path d="M30.4694 16.8384C32.6835 16.8384 34.4785 15.0435 34.4785 12.8293C34.4785 10.6151 32.6835 8.82013 30.4694 8.82013C28.2552 8.82013 26.4602 10.6151 26.4602 12.8293C26.4602 15.0435 28.2552 16.8384 30.4694 16.8384Z" fill="black"/>
<path d="M28.8657 12.0274C29.3085 12.0274 29.6675 11.6684 29.6675 11.2256C29.6675 10.7828 29.3085 10.4238 28.8657 10.4238C28.4228 10.4238 28.0638 10.7828 28.0638 11.2256C28.0638 11.6684 28.4228 12.0274 28.8657 12.0274Z" fill="white"/>
</g>
<defs>
<clipPath id="clip0_1_493">
<rect width="137.113" height="25.6585" fill="white"/>
</clipPath>
</defs>
</svg>
